<?xml version="1.0" encoding="UTF-8"?><svg id="a" xmlns="http://www.w3.org/2000/svg" viewBox="0 0 518.43 112.01"><defs><style>.d{isolation:isolate;opacity:.33;}</style></defs><g id="b"><g id="c"><path d="M221.07,107.68l-.24.15-.24.15-.24.15-.13.08.15.24.15.24.15.24.15.24.15.24.15.24.15.24.15.24.15.24.15.24.15.24.03.04.24-.16.24-.16.24-.16.24-.16.24-.16.24-.16.24-.16.24-.16.24-.16.24-.16.22-.15v-.28l.03-.28v-.28l.03-.28v-.28l.03-.28v-.28l.03-.28v-.28l.03-.28v-.28l.03-.28v-.28l.03-.28v-.28l.03-.28v-.28l.03-.28v-.28l.03-.28v-.28l.03-.28v-.28l.03-.35-.23-.17-.23-.17-.23-.17-.22-.16-.24.16-.24.16-.24.16-.24.16-.24.16-.24.16-.24.16-.24.16-.24.16-.24.16-.18.12v.28l-.03.28v.28l-.03.28v.28l-.03.28v.28l-.03.28v.28l-.03.28v.28l-.03.28v.28l-.03.28v.28l-.02.08"/><path d="M77.41,23.49l-.24.15-.24.15-.24.15-.24.15-.17.11.15.24.15.24.15.24.15.24.15.24.15.24.15.24.15.24.15.24.15.24.15.24.15.24.15.24.15.24.13.22.24-.16.24-.16.24-.16.24-.16.24-.16.24-.16.24-.16.24-.16.24-.16.24-.16.24-.16.24-.16.24-.16.24-.16.14-.09v-.28l.03-.28v-.28l.03-.28v-.28l.03-.28v-.28l.03-.28v-.28l.03-.28v-.28l.03-.28v-.28l.03-.28v-.28l.03-.28v-.28l.03-.28v-.28l.03-.28v-.28l.03-.28v-.28l.03-.28v-.28l.03-.28v-.28l.03-.28v-.28l.03-.28v-.28l.03-.37-.23-.17-.23-.17-.23-.17-.23-.17-.23-.17-.06-.04-.24.16-.24.16-.24.16-.24.16-.24.16-.24.16-.24.16-.24.16-.24.16-.24.16-.24.16-.24.16-.24.16-.24.16-.08.05v.28l-.03.28v.28l-.03.28v.28l-.03.28v.28l-.03.28v.28l-.03.28v.28l-.03.28v.28l-.03.28v.28l-.03.28v.28l-.03.28v.28l-.03.28v.1"/><path d="M83.37,3.97l-.24-.16-.24-.16-.24-.16-.24-.16-.24-.16-.24-.16-.24-.16-.24-.16-.15-.1-.19.21-.19.21-.19.21-.19.21-.19.21-.19.21-.19.21-.19.21-.19.21-.19.21-.19.21-.19.21-.19.21-.08.08v.28l-.03.28v.28l-.03.28v.28l-.03.28v.28l-.03.28v.28l-.03.28v.28l-.03.28v.28l-.03.28v.28l-.03.28v.28l-.03.28v.28l-.03.28v.1l-.25.15-.24.15-.24.15-.24.15-.17.11.23.17.23.17.23.17.23.17.23.17.23.17.23.17.23.17.23.17.23.17.23.17.23.17.23.17.23.17.23.17.2.14.24-.16.24-.16.24-.16.24-.16.24-.16.24-.16.24-.16.24-.16.06-.04v-.28l.03-.28v-.28l.03-.28v-.28l.03-.28v-.28l.03-.28v-.28l.03-.28v-.28l.03-.28v-.28l.03-.28v-.28l.03-.28v-.28l.03-.28v-.28l.03-.28v-.28l.03-.28v-.28l.03-.28v-.28l.03-.28v-.28l.03-.28v-.28l.03-.28v-.28l.03-.28v-.19"/><path d="M84.81,24.65l.15.24.15.24.15.24.15.24.15.24.15.24.15.24.15.24.15.24.15.24.15.24.15.24.04.07.19-.22.19-.22.19-.22.19-.22.19-.22.19-.22.19-.22.19-.22.19-.22.19-.22.19-.22.19-.22.19-.22.19-.22.19-.22.19-.22.19-.22.05-.06-.12-.26-.12-.26-.12-.26-.1-.21.02-.28.02-.28.02-.28.02-.28.02-.28.02-.28.02-.28.02-.28.02-.28.02-.28.02-.28v-.19l.2-.21.19-.21.19-.21.19-.21.19-.21.19-.21.19-.21.19-.21.19-.21.19-.21.03-.03-.23-.16-.23-.16-.23-.16-.23-.16-.23-.16-.23-.16-.23-.16-.23-.16-.23-.16-.23-.16-.23-.16-.23-.16-.23-.16-.23-.16-.23-.16-.23-.16-.05-.03-.19.21-.19.21-.19.21-.19.21-.19.21-.19.21-.19.21-.19.21-.19.21-.19.21-.19.21-.19.21-.19.21-.08.09v.28l-.03.28v.28l-.03.28v.28l-.03.28v.28l-.03.28v.28l-.03.28v.28l-.03.28v.28l-.03.28v.28l-.03.28v.28l-.03.28v.28l-.03.28v.28l-.03.28v.28l-.03.28v.12"/><path d="M103.72,3.97l-.24-.16-.24-.16-.24-.16-.24-.16-.24-.16-.24-.16-.24-.16-.24-.16-.15-.1-.19.21-.19.21-.19.21-.19.21-.19.21-.19.21-.19.21-.19.21-.19.21-.19.21-.19.21-.19.21-.19.21-.08.08v.28l-.03.28v.28l-.03.28v.28l-.03.28v.28l-.03.28v.28l-.03.28v.28l-.03.28v.28l-.03.28v.28l-.03.28v.28l-.03.28v.28l-.03.28v.1l-.25.15-.24.15-.24.15-.24.15-.17.11.23.17.23.17.23.17.23.17.23.17.23.17.23.17.23.17.23.17.23.17.23.17.23.17.23.17.23.17.23.17.2.14.24-.16.24-.16.24-.16.24-.16.24-.16.24-.16.24-.16.24-.16.05-.04v-.28l.03-.28v-.28l.03-.28v-.28l.03-.28v-.28l.03-.28v-.28l.03-.28v-.28l.03-.28v-.28l.03-.28v-.28l.03-.28v-.28l.03-.28v-.28l.03-.28v-.28l.03-.28v-.28l.03-.28v-.28l.03-.28v-.28l.03-.28v-.28l.03-.28v-.28l.03-.28v-.19"/><path d="M91.16.03l-.19.21-.19.21-.19.21-.19.21-.19.21-.19.21-.19.21-.19.21-.19.21-.2.22.24.16.24.16.24.16.24.16.24.16.24.16.24.16.24.16.24.16.24.16.24.16.24.16.24.16.24.16.24.16.24.16.06.04h5.78l.19-.21.19-.21.19-.21.19-.21.19-.21.19-.21.19-.21.19-.21.19-.21.19-.21.19-.21.14-.16-.24-.16-.24-.16-.24-.16-.24-.16-.24-.16-.24-.16-.24-.16-.24-.16-.24-.16-.24-.16-.24-.16-.24-.16-.24-.16-.24-.16L97.76,0h-6.56"/><path d="M88.9,14.92l.24.16.24.16.24.16.24.16.24.16.24.16.24.16.24.16.24.16.24.16.24.16.24.16.24.16h5.78l.24-.16.24-.16.24-.16.24-.16.24-.16.24-.16.24-.16.24-.16.24-.16.24-.16.24-.16.24-.16.15-.1-.23-.17-.23-.17-.23-.17-.23-.17-.23-.17-.23-.17-.23-.17-.23-.17-.23-.17-.23-.17-.23-.17-.23-.17-.23-.17-.23-.17-.23-.17-.23-.17h-5.85l-.19.21-.19.21-.19.21-.19.21-.19.21-.19.21-.19.21-.19.21-.19.21-.19.21-.19.21-.19.21-.05.06"/><path d="M86.95,28.2l.15.24.15.24.15.24.15.24.06.1h9.09l.24-.16.24-.16.24-.16.24-.16.24-.16.24-.16.17-.12-.15-.24-.15-.24-.15-.24-.15-.24-.15-.24-.15-.24-.15-.24-.15-.24-.15-.24-.15-.24-.15-.24-.15-.24-.15-.24-.15-.24-.11-.18h-6l-.19.21-.19.21-.19.21-.19.21-.19.21-.19.21-.19.21-.19.21-.19.21-.19.21-.19.21-.19.21-.19.21-.19.21-.19.21-.19.21-.17.2"/><path d="M107.3,28.2l.15.24.15.24.15.24.15.24.06.1h9.09l.24-.16.24-.16.24-.16.24-.16.24-.16.24-.16.17-.12-.15-.24-.15-.24-.15-.24-.15-.24-.15-.24-.15-.24-.15-.24-.15-.24-.15-.24-.15-.24-.15-.24-.15-.24-.15-.24-.15-.24-.11-.18h-6l-.19.21-.19.21-.19.21-.19.21-.19.21-.19.21-.19.21-.19.21-.19.21-.19.21-.19.21-.19.21-.19.21-.19.21-.19.21-.19.21-.17.2"/><path d="M109.25,14.92l.24.16.24.16.24.16.24.16.24.16.24.16.24.16.24.16.24.16.24.16.24.16.24.16.24.16h5.78l.24-.16.24-.16.24-.16.24-.16.24-.16.24-.16.24-.16.24-.16.24-.16.24-.16.24-.16.24-.16.15-.1-.23-.17-.23-.17-.23-.17-.23-.17-.23-.17-.23-.17-.23-.17-.23-.17-.23-.17-.23-.17-.23-.17-.23-.17-.23-.17-.23-.17-.23-.17-.23-.17h-5.85l-.19.21-.19.21-.19.21-.19.21-.19.21-.19.21-.19.21-.19.21-.19.21-.19.21-.19.21-.19.21-.05.06"/><path d="M124.07,3.97l-.24-.16-.24-.16-.24-.16-.24-.16-.24-.16-.24-.16-.24-.16-.24-.16-.15-.1-.19.21-.19.21-.19.21-.19.21-.19.21-.19.21-.19.21-.19.21-.19.21-.19.21-.19.21-.19.21-.19.21-.08.08v.28l-.03.28v.28l-.03.28v.28l-.03.28v.28l-.03.28v.28l-.03.28v.28l-.03.28v.28l-.03.28v.28l-.03.28v.28l-.03.28v.28l-.03.28v.1l-.25.15-.24.15-.24.15-.24.15-.17.11.23.17.23.17.23.17.23.17.23.17.23.17.23.17.23.17.23.17.23.17.23.17.23.17.23.17.23.17.23.17.2.14.24-.16.24-.16.24-.16.24-.16.24-.16.24-.16.24-.16.24-.16.05-.04v-.28l.03-.28v-.28l.03-.28v-.28l.03-.28v-.28l.03-.28v-.28l.03-.28v-.28l.03-.28v-.28l.03-.28v-.28l.03-.28v-.28l.03-.28v-.28l.03-.28v-.28l.03-.28v-.28l.03-.28v-.28l.03-.28v-.28l.03-.28v-.28l.03-.28v-.28l.03-.28v-.19"/><path d="M118.11,23.49l-.24.15-.24.15-.24.15-.24.15-.17.11.15.24.15.24.15.24.15.24.15.24.15.24.15.24.15.24.15.24.15.24.15.24.15.24.15.24.15.24.13.22.24-.16.24-.16.24-.16.24-.16.24-.16.24-.16.24-.16.24-.16.24-.16.24-.16.24-.16.24-.16.24-.16.24-.16.14-.09v-.28l.03-.28v-.28l.03-.28v-.28l.03-.28v-.28l.03-.28v-.28l.03-.28v-.28l.03-.28v-.28l.03-.28v-.28l.03-.28v-.28l.03-.28v-.28l.03-.28v-.28l.03-.28v-.28l.03-.28v-.28l.03-.28v-.28l.03-.28v-.28l.03-.28v-.28l.03-.37-.23-.17-.23-.17-.23-.17-.23-.17-.23-.17-.06-.04-.24.16-.24.16-.24.16-.24.16-.24.16-.24.16-.24.16-.24.16-.24.16-.24.16-.24.16-.24.16-.24.16-.24.16-.08.05v.28l-.03.28v.28l-.03.28v.28l-.03.28v.28l-.03.28v.28l-.03.28v.28l-.03.28v.28l-.03.28v.28l-.03.28v.28l-.03.28v.28l-.03.28v.1"/><path d="M111.51.03l-.19.21-.19.21-.19.21-.19.21-.19.21-.19.21-.19.21-.19.21-.19.21-.2.22.24.16.24.16.24.16.24.16.24.16.24.16.24.16.24.16.24.16.24.16.24.16.24.16.24.16.24.16.24.16.24.16.06.04h5.78l.19-.21.19-.21.19-.21.19-.21.19-.21.19-.21.19-.21.19-.21.19-.21.19-.21.19-.21.14-.16-.24-.16-.24-.16-.24-.16-.24-.16-.24-.16-.24-.16-.24-.16-.24-.16-.24-.16-.24-.16-.24-.16-.24-.16-.24-.16-.24-.16L118.11,0h-6.56"/><path d="M148,28.2l.15.24.15.24.15.24.15.24.06.1h9.09l.24-.16.24-.16.24-.16.24-.16.24-.16.24-.16.17-.12-.15-.24-.15-.24-.15-.24-.15-.24-.15-.24-.15-.24-.15-.24-.15-.24-.15-.24-.15-.24-.15-.24-.15-.24-.15-.24-.15-.24-.11-.18h-6l-.19.21-.19.21-.19.21-.19.21-.19.21-.19.21-.19.21-.19.21-.19.21-.19.21-.19.21-.19.21-.19.21-.19.21-.19.21-.19.21-.17.2"/><path d="M149.95,14.92l.24.16.24.16.24.16.24.16.24.16.24.16.24.16.24.16.24.16.24.16.24.16.24.16.24.16h5.78l.24-.16.24-.16.24-.16.24-.16.24-.16.24-.16.24-.16.24-.16.24-.16.24-.16.24-.16.24-.16.15-.1-.23-.17-.23-.17-.23-.17-.23-.17-.23-.17-.23-.17-.23-.17-.23-.17-.23-.17-.23-.17-.23-.17-.23-.17-.23-.17-.23-.17-.23-.17-.23-.17h-5.85l-.19.21-.19.21-.19.21-.19.21-.19.21-.19.21-.19.21-.19.21-.19.21-.19.21-.19.21-.19.21-.05.06"/><path d="M147.24,5.42v.28l-.03.28v.28l-.03.28v.28l-.03.28v.28l-.03.28v.28l-.03.28v.28l-.03.28v.28l-.03.28v.28l-.03.28v.28l-.03.28v.28l-.03.28v.28l-.03.28v.28l-.03.28v.28l-.03.35.24.16.24.16.24.16.24.16.24.16.24.16.24.16.24.16.24.16.24.16.15.1.19-.22.19-.22.19-.22.19-.22.19-.22.19-.22.19-.22.19-.22.19-.22.19-.22.19-.22.19-.22.19-.22.11-.13-.12-.26-.12-.26-.12-.26-.1-.21.02-.28.02-.28.02-.28.02-.28.02-.28.02-.28.02-.28.02-.28.02-.28.02-.28.02-.28v-.19l.2-.21.19-.21.19-.21.19-.21.19-.21.19-.21.19-.21.19-.21.19-.21.19-.21.03-.03-.23-.16-.23-.16-.23-.16-.23-.16-.23-.16-.23-.16-.23-.16-.23-.16-.23-.16-.23-.16-.23-.16-.23-.16-.23-.16-.23-.16-.23-.16-.23-.16-.05-.03-.19.21-.19.21-.19.21-.19.21-.19.21-.19.21-.19.21-.19.21-.19.21-.19.21-.19.21-.19.21-.19.21-.08.09"/><path d="M158.81,23.49l-.24.15-.24.15-.24.15-.24.15-.17.11.15.24.15.24.15.24.15.24.15.24.15.24.15.24.15.24.15.24.15.24.15.24.15.24.15.24.15.24.13.22.24-.16.24-.16.24-.16.24-.16.24-.16.24-.16.24-.16.24-.16.24-.16.24-.16.24-.16.24-.16.24-.16.24-.16.14-.09v-.28l.03-.28v-.28l.03-.28v-.28l.03-.28v-.28l.03-.28v-.28l.03-.28v-.28l.03-.28v-.28l.03-.28v-.28l.03-.28v-.28l.03-.28v-.28l.03-.28v-.28l.03-.28v-.28l.03-.28v-.28l.03-.28v-.28l.03-.28v-.28l.03-.28v-.28l.03-.37-.23-.17-.23-.17-.23-.17-.23-.17-.23-.17-.06-.04-.24.16-.24.16-.24.16-.24.16-.24.16-.24.16-.24.16-.24.16-.24.16-.24.16-.24.16-.24.16-.24.16-.24.16-.08.05v.28l-.03.28v.28l-.03.28v.28l-.03.28v.28l-.03.28v.28l-.03.28v.28l-.03.28v.28l-.03.28v.28l-.03.28v.28l-.03.28v.28l-.03.28v.1"/><path d="M152.21.03l-.19.21-.19.21-.19.21-.19.21-.19.21-.19.21-.19.21-.19.21-.19.21-.2.22.24.16.24.16.24.16.24.16.24.16.24.16.24.16.24.16.24.16.24.16.24.16.24.16.24.16.24.16.24.16.24.16.06.04h5.78l.19-.21.19-.21.19-.21.19-.21.19-.21.19-.21.19-.21.19-.21.19-.21.19-.21.19-.21.14-.16-.24-.16-.24-.16-.24-.16-.24-.16-.24-.16-.24-.16-.24-.16-.24-.16-.24-.16-.24-.16-.24-.16-.24-.16-.24-.16-.24-.16L158.81,0h-6.56"/><path d="M138.46,23.49l-.24.15-.24.15-.24.15-.24.15-.17.11.15.24.15.24.15.24.15.24.15.24.15.24.15.24.15.24.15.24.15.24.15.24.15.24.15.24.15.24.13.22.24-.16.24-.16.24-.16.24-.16.24-.16.24-.16.24-.16.24-.16.24-.16.24-.16.24-.16.24-.16.24-.16.24-.16.14-.09v-.28l.03-.28v-.28l.03-.28v-.28l.03-.28v-.28l.03-.28v-.28l.03-.28v-.28l.03-.28v-.28l.03-.28v-.28l.03-.28v-.28l.03-.28v-.28l.03-.28v-.28l.03-.28v-.28l.03-.28v-.28l.03-.28v-.28l.03-.28v-.28l.03-.28v-.28l.03-.37-.23-.17-.23-.17-.23-.17-.23-.17-.23-.17-.06-.04-.24.16-.24.16-.24.16-.24.16-.24.16-.24.16-.24.16-.24.16-.24.16-.24.16-.24.16-.24.16-.24.16-.24.16-.08.05v.28l-.03.28v.28l-.03.28v.28l-.03.28v.28l-.03.28v.28l-.03.28v.28l-.03.28v.28l-.03.28v.28l-.03.28v.28l-.03.28v.28l-.03.28v.1"/><path d="M144.42,3.97l-.24-.16-.24-.16-.24-.16-.24-.16-.24-.16-.24-.16-.24-.16-.24-.16-.15-.1-.19.21-.19.21-.19.21-.19.21-.19.21-.19.21-.19.21-.19.21-.19.21-.19.21-.19.21-.19.21-.19.21-.08.08v.28l-.03.28v.28l-.03.28v.28l-.03.28v.28l-.03.28v.28l-.03.28v.28l-.03.28v.28l-.03.28v.28l-.03.28v.28l-.03.28v.28l-.03.28v.1l-.25.15-.24.15-.24.15-.24.15-.17.11.23.17.23.17.23.17.23.17.23.17.23.17.23.17.23.17.23.17.23.17.23.17.23.17.23.17.23.17.23.17.2.14.24-.16.24-.16.24-.16.24-.16.24-.16.24-.16.24-.16.24-.16.05-.04v-.28l.03-.28v-.28l.03-.28v-.28l.03-.28v-.28l.03-.28v-.28l.03-.28v-.28l.03-.28v-.28l.03-.28v-.28l.03-.28v-.28l.03-.28v-.28l.03-.28v-.28l.03-.28v-.28l.03-.28v-.28l.03-.28v-.28l.03-.28v-.28l.03-.28v-.28l.03-.28v-.19"/><path d="M126.89,5.42v.28l-.03.28v.28l-.03.28v.28l-.03.28v.28l-.03.28v.28l-.03.28v.28l-.03.28v.28l-.03.28v.28l-.03.28v.28l-.03.28v.28l-.03.28v.28l-.03.28v.28l-.03.28v.28l-.03.35.24.16.24.16.24.16.24.16.24.16.24.16.24.16.24.16.24.16.24.16.15.1.19-.22.19-.22.19-.22.19-.22.19-.22.19-.22.19-.22.19-.22.19-.22.19-.22.19-.22.19-.22.19-.22.11-.13-.12-.26-.12-.26-.12-.26-.1-.21.02-.28.02-.28.02-.28.02-.28.02-.28.02-.28.02-.28.02-.28.02-.28.02-.28.02-.28v-.19l.2-.21.19-.21.19-.21.19-.21.19-.21.19-.21.19-.21.19-.21.19-.21.19-.21.03-.03-.23-.16-.23-.16-.23-.16-.23-.16-.23-.16-.23-.16-.23-.16-.23-.16-.23-.16-.23-.16-.23-.16-.23-.16-.23-.16-.23-.16-.23-.16-.23-.16-.05-.03-.19.21-.19.21-.19.21-.19.21-.19.21-.19.21-.19.21-.19.21-.19.21-.19.21-.19.21-.19.21-.19.21-.08.09"/><path d="M129.6,14.92l.24.16.24.16.24.16.24.16.24.16.24.16.24.16.24.16.24.16.24.16.24.16.24.16.24.16h5.78l.24-.16.24-.16.24-.16.24-.16.24-.16.24-.16.24-.16.24-.16.24-.16.24-.16.24-.16.24-.16.15-.1-.23-.17-.23-.17-.23-.17-.23-.17-.23-.17-.23-.17-.23-.17-.23-.17-.23-.17-.23-.17-.23-.17-.23-.17-.23-.17-.23-.17-.23-.17-.23-.17h-5.84l-.19.21-.19.21-.19.21-.19.21-.19.21-.19.21-.19.21-.19.21-.19.21-.19.21-.19.21-.19.21-.05.06"/><path d="M231.35,14.92l.24.16.24.16.24.16.24.16.24.16.24.16.24.16.24.16.24.16.24.16.24.16.24.16.24.16h5.78l.24-.16.24-.16.24-.16.24-.16.24-.16.24-.16.24-.16.24-.16.24-.16.24-.16.24-.16.24-.16.15-.1-.23-.17-.23-.17-.23-.17-.23-.17-.23-.17-.23-.17-.23-.17-.23-.17-.23-.17-.23-.17-.23-.17-.23-.17-.23-.17-.23-.17-.23-.17-.23-.17h-5.85l-.19.21-.19.21-.19.21-.19.21-.19.21-.19.21-.19.21-.19.21-.19.21-.19.21-.19.21-.19.21-.05.06"/><path d="M233.61.03l-.19.21-.19.21-.19.21-.19.21-.19.21-.19.21-.19.21-.19.21-.19.21-.2.22.24.16.24.16.24.16.24.16.24.16.24.16.24.16.24.16.24.16.24.16.24.16.24.16.24.16.24.16.24.16.24.16.06.04h5.78l.19-.21.19-.21.19-.21.19-.21.19-.21.19-.21.19-.21.19-.21.19-.21.19-.21.19-.21.14-.16-.24-.16-.24-.16-.24-.16-.24-.16-.24-.16-.24-.16-.24-.16-.24-.16-.24-.16-.24-.16-.24-.16-.24-.16-.24-.16-.24-.16L240.21,0h-6.56"/><path d="M228.64,5.42v.28l-.03.28v.28l-.03.28v.28l-.03.28v.28l-.03.28v.28l-.03.28v.28l-.03.28v.28l-.03.28v.28l-.03.28v.28l-.03.28v.28l-.03.28v.28l-.03.28v.28l-.03.28v.28l-.03.35.24.16.24.16.24.16.24.16.24.16.24.16.24.16.24.16.24.16.24.16.15.1.19-.22.19-.22.19-.22.19-.22.19-.22.19-.22.19-.22.19-.22.19-.22.19-.22.19-.22.19-.22.19-.22.11-.13-.12-.26-.12-.26-.12-.26-.1-.21.02-.28.02-.28.02-.28.02-.28.02-.28.02-.28.02-.28.02-.28.02-.28.02-.28.02-.28v-.19l.2-.21.19-.21.19-.21.19-.21.19-.21.19-.21.19-.21.19-.21.19-.21.19-.21.03-.03-.23-.16-.23-.16-.23-.16-.23-.16-.23-.16-.23-.16-.23-.16-.23-.16-.23-.16-.23-.16-.23-.16-.23-.16-.23-.16-.23-.16-.23-.16-.23-.16-.05-.03-.19.21-.19.21-.19.21-.19.21-.19.21-.19.21-.19.21-.19.21-.19.21-.19.21-.19.21-.19.21-.19.21-.08.09"/><path d="M246.17,3.97l-.24-.16-.24-.16-.24-.16-.24-.16-.24-.16-.24-.16-.24-.16-.24-.16-.15-.1-.19.21-.19.21-.19.21-.19.21-.19.21-.19.21-.19.21-.19.21-.19.21-.19.21-.19.21-.19.21-.19.21-.08.08v.28l-.03.28v.28l-.03.28v.28l-.03.28v.28l-.03.28v.28l-.03.28v.28l-.03.28v.28l-.03.28v.28l-.03.28v.28l-.03.28v.28l-.03.28v.1l-.25.15-.24.15-.24.15-.24.15-.17.11.23.17.23.17.23.17.23.17.23.17.23.17.23.17.23.17.23.17.23.17.23.17.23.17.23.17.23.17.23.17.2.14.24-.16.24-.16.24-.16.24-.16.24-.16.24-.16.24-.16.24-.16.05-.04v-.28l.03-.28v-.28l.03-.28v-.28l.03-.28v-.28l.03-.28v-.28l.03-.28v-.28l.03-.28v-.28l.03-.28v-.28l.03-.28v-.28l.03-.28v-.28l.03-.28v-.28l.03-.28v-.28l.03-.28v-.28l.03-.28v-.28l.03-.28v-.28l.03-.28v-.28l.03-.28v-.19"/><path d="M240.21,23.49l-.24.15-.24.15-.24.15-.24.15-.17.11.15.24.15.24.15.24.15.24.15.24.15.24.15.24.15.24.15.24.15.24.15.24.15.24.15.24.15.24.13.22.24-.16.24-.16.24-.16.24-.16.24-.16.24-.16.24-.16.24-.16.24-.16.24-.16.24-.16.24-.16.24-.16.24-.16.14-.09v-.28l.03-.28v-.28l.03-.28v-.28l.03-.28v-.28l.03-.28v-.28l.03-.28v-.28l.03-.28v-.28l.03-.28v-.28l.03-.28v-.28l.03-.28v-.28l.03-.28v-.28l.03-.28v-.28l.03-.28v-.28l.03-.28v-.28l.03-.28v-.28l.03-.28v-.28l.03-.37-.23-.17-.23-.17-.23-.17-.23-.17-.23-.17-.06-.04-.24.16-.24.16-.24.16-.24.16-.24.16-.24.16-.24.16-.24.16-.24.16-.24.16-.24.16-.24.16-.24.16-.24.16-.08.05v.28l-.03.28v.28l-.03.28v.28l-.03.28v.28l-.03.28v.28l-.03.28v.28l-.03.28v.28l-.03.28v.28l-.03.28v.28l-.03.28v.28l-.03.28v.1"/><path d="M179.16,23.49l-.24.15-.24.15-.24.15-.24.15-.17.11.15.24.15.24.15.24.15.24.15.24.15.24.15.24.15.24.15.24.15.24.15.24.15.24.15.24.15.24.13.22.24-.16.24-.16.24-.16.24-.16.24-.16.24-.16.24-.16.24-.16.24-.16.24-.16.24-.16.24-.16.24-.16.24-.16.14-.09v-.28l.03-.28v-.28l.03-.28v-.28l.03-.28v-.28l.03-.28v-.28l.03-.28v-.28l.03-.28v-.28l.03-.28v-.28l.03-.28v-.28l.03-.28v-.28l.03-.28v-.28l.03-.28v-.28l.03-.28v-.28l.03-.28v-.28l.03-.28v-.28l.03-.28v-.28l.03-.37-.23-.17-.23-.17-.23-.17-.23-.17-.23-.17-.06-.04-.24.16-.24.16-.24.16-.24.16-.24.16-.24.16-.24.16-.24.16-.24.16-.24.16-.24.16-.24.16-.24.16-.24.16-.08.05v.28l-.03.28v.28l-.03.28v.28l-.03.28v.28l-.03.28v.28l-.03.28v.28l-.03.28v.28l-.03.28v.28l-.03.28v.28l-.03.28v.28l-.03.28v.1"/><path d="M166.21,24.65l.15.24.15.24.15.24.15.24.15.24.15.24.15.24.15.24.15.24.15.24.15.24.15.24.04.07.19-.22.19-.22.19-.22.19-.22.19-.22.19-.22.19-.22.19-.22.19-.22.19-.22.19-.22.19-.22.19-.22.19-.22.19-.22.19-.22.19-.22.05-.06-.12-.26-.12-.26-.12-.26-.1-.21.02-.28.02-.28.02-.28.02-.28.02-.28.02-.28.02-.28.02-.28.02-.28.02-.28.02-.28v-.19l.2-.21.19-.21.19-.21.19-.21.19-.21.19-.21.19-.21.19-.21.19-.21.19-.21.03-.03-.23-.16-.23-.16-.23-.16-.23-.16-.23-.16-.23-.16-.23-.16-.23-.16-.23-.16-.23-.16-.23-.16-.23-.16-.23-.16-.23-.16-.23-.16-.23-.16-.05-.03-.19.21-.19.21-.19.21-.19.21-.19.21-.19.21-.19.21-.19.21-.19.21-.19.21-.19.21-.19.21-.19.21-.08.09v.28l-.03.28v.28l-.03.28v.28l-.03.28v.28l-.03.28v.28l-.03.28v.28l-.03.28v.28l-.03.28v.28l-.03.28v.28l-.03.28v.28l-.03.28v.28l-.03.28v.28l-.03.28v.12"/><path d="M167.59,5.42v.28l-.03.28v.28l-.03.28v.28l-.03.28v.28l-.03.28v.28l-.03.28v.28l-.03.28v.28l-.03.28v.28l-.03.28v.28l-.03.28v.28l-.03.28v.28l-.03.28v.28l-.03.28v.28l-.03.35.24.16.24.16.24.16.24.16.24.16.24.16.24.16.24.16.24.16.24.16.15.1.19-.22.19-.22.19-.22.19-.22.19-.22.19-.22.19-.22.19-.22.19-.22.19-.22.19-.22.19-.22.19-.22.11-.13-.12-.26-.12-.26-.12-.26-.1-.21.02-.28.02-.28.02-.28.02-.28.02-.28.02-.28.02-.28.02-.28.02-.28.02-.28.02-.28v-.19l.2-.21.19-.21.19-.21.19-.21.19-.21.19-.21.19-.21.19-.21.19-.21.19-.21.03-.03-.23-.16-.23-.16-.23-.16-.23-.16-.23-.16-.23-.16-.23-.16-.23-.16-.23-.16-.23-.16-.23-.16-.23-.16-.23-.16-.23-.16-.23-.16-.23-.16-.05-.03-.19.21-.19.21-.19.21-.19.21-.19.21-.19.21-.19.21-.19.21-.19.21-.19.21-.19.21-.19.21-.19.21-.08.09"/><path d="M172.56.03l-.19.21-.19.21-.19.21-.19.21-.19.21-.19.21-.19.21-.19.21-.19.21-.2.22.24.16.24.16.24.16.24.16.24.16.24.16.24.16.24.16.24.16.24.16.24.16.24.16.24.16.24.16.24.16.24.16.06.04h5.78l.19-.21.19-.21.19-.21.19-.21.19-.21.19-.21.19-.21.19-.21.19-.21.19-.21.19-.21.14-.16-.24-.16-.24-.16-.24-.16-.24-.16-.24-.16-.24-.16-.24-.16-.24-.16-.24-.16-.24-.16-.24-.16-.24-.16-.24-.16-.24-.16L179.16,0h-6.56"/><path d="M170.3,14.92l.24.16.24.16.24.16.24.16.24.16.24.16.24.16.24.16.24.16.24.16.24.16.24.16.24.16h5.78l.24-.16.24-.16.24-.16.24-.16.24-.16.24-.16.24-.16.24-.16.24-.16.24-.16.24-.16.24-.16.15-.1-.23-.17-.23-.17-.23-.17-.23-.17-.23-.17-.23-.17-.23-.17-.23-.17-.23-.17-.23-.17-.23-.17-.23-.17-.23-.17-.23-.17-.23-.17-.23-.17h-5.85l-.19.21-.19.21-.19.21-.19.21-.19.21-.19.21-.19.21-.19.21-.19.21-.19.21-.19.21-.19.21-.05.06"/><path d="M168.35,28.2l.15.24.15.24.15.24.15.24.06.1h9.09l.24-.16.24-.16.24-.16.24-.16.24-.16.24-.16.17-.12-.15-.24-.15-.24-.15-.24-.15-.24-.15-.24-.15-.24-.15-.24-.15-.24-.15-.24-.15-.24-.15-.24-.15-.24-.15-.24-.15-.24-.11-.18h-6l-.19.21-.19.21-.19.21-.19.21-.19.21-.19.21-.19.21-.19.21-.19.21-.19.21-.19.21-.19.21-.19.21-.19.21-.19.21-.19.21-.17.2"/><path d="M205.47,3.97l-.24-.16-.24-.16-.24-.16-.24-.16-.24-.16-.24-.16-.24-.16-.24-.16-.15-.1-.19.21-.19.21-.19.21-.19.21-.19.21-.19.21-.19.21-.19.21-.19.21-.19.21-.19.21-.19.21-.19.21-.08.08v.28l-.03.28v.28l-.03.28v.28l-.03.28v.28l-.03.28v.28l-.03.28v.28l-.03.28v.28l-.03.28v.28l-.03.28v.28l-.03.28v.28l-.03.28v.1l-.25.15-.24.15-.24.15-.24.15-.17.11.23.17.23.17.23.17.23.17.23.17.23.17.23.17.23.17.23.17.23.17.23.17.23.17.23.17.23.17.23.17.2.14.24-.16.24-.16.24-.16.24-.16.24-.16.24-.16.24-.16.24-.16.06-.04v-.28l.03-.28v-.28l.03-.28v-.28l.03-.28v-.28l.03-.28v-.28l.03-.28v-.28l.03-.28v-.28l.03-.28v-.28l.03-.28v-.28l.03-.28v-.28l.03-.28v-.28l.03-.28v-.28l.03-.28v-.28l.03-.28v-.28l.03-.28v-.28l.03-.28v-.28l.03-.28v-.19"/><path d="M199.51,23.49l-.24.15-.24.15-.24.15-.24.15-.17.11.15.24.15.24.15.24.15.24.15.24.15.24.15.24.15.24.15.24.15.24.15.24.15.24.15.24.15.24.13.22.24-.16.24-.16.24-.16.24-.16.24-.16.24-.16.24-.16.24-.16.24-.16.24-.16.24-.16.24-.16.24-.16.24-.16.14-.09v-.28l.03-.28v-.28l.03-.28v-.28l.03-.28v-.28l.03-.28v-.28l.03-.28v-.28l.03-.28v-.28l.03-.28v-.28l.03-.28v-.28l.03-.28v-.28l.03-.28v-.28l.03-.28v-.28l.03-.28v-.28l.03-.28v-.28l.03-.28v-.28l.03-.28v-.28l.03-.37-.23-.17-.23-.17-.23-.17-.23-.17-.23-.17-.06-.04-.24.16-.24.16-.24.16-.24.16-.24.16-.24.16-.24.16-.24.16-.24.16-.24.16-.24.16-.24.16-.24.16-.24.16-.08.05v.28l-.03.28v.28l-.03.28v.28l-.03.28v.28l-.03.28v.28l-.03.28v.28l-.03.28v.28l-.03.28v.28l-.03.28v.28l-.03.28v.28l-.03.28v.1"/><path d="M192.91.03l-.19.21-.19.21-.19.21-.19.21-.19.21-.19.21-.19.21-.19.21-.19.21-.2.22.24.16.24.16.24.16.24.16.24.16.24.16.24.16.24.16.24.16.24.16.24.16.24.16.24.16.24.16.24.16.24.16.06.04h5.78l.19-.21.19-.21.19-.21.19-.21.19-.21.19-.21.19-.21.19-.21.19-.21.19-.21.19-.21.14-.16-.24-.16-.24-.16-.24-.16-.24-.16-.24-.16-.24-.16-.24-.16-.24-.16-.24-.16-.24-.16-.24-.16-.24-.16-.24-.16-.24-.16L199.51,0h-6.56"/><path d="M219.86,23.49l-.24.15-.24.15-.24.15-.24.15-.17.11.15.24.15.24.15.24.15.24.15.24.15.24.15.24.15.24.15.24.15.24.15.24.15.24.15.24.15.24.13.22.24-.16.24-.16.24-.16.24-.16.24-.16.24-.16.24-.16.24-.16.24-.16.24-.16.24-.16.24-.16.24-.16.24-.16.14-.09v-.28l.03-.28v-.28l.03-.28v-.28l.03-.28v-.28l.03-.28v-.28l.03-.28v-.28l.03-.28v-.28l.03-.28v-.28l.03-.28v-.28l.03-.28v-.28l.03-.28v-.28l.03-.28v-.28l.03-.28v-.28l.03-.28v-.28l.03-.28v-.28l.03-.28v-.28l.03-.37-.23-.17-.23-.17-.23-.17-.23-.17-.23-.17-.06-.04-.24.16-.24.16-.24.16-.24.16-.24.16-.24.16-.24.16-.24.16-.24.16-.24.16-.24.16-.24.16-.24.16-.24.16-.08.05v.28l-.03.28v.28l-.03.28v.28l-.03.28v.28l-.03.28v.28l-.03.28v.28l-.03.28v.28l-.03.28v.28l-.03.28v.28l-.03.28v.28l-.03.28v.1"/><path d="M206.9,24.65l.15.24.15.24.15.24.15.24.15.24.15.24.15.24.15.24.15.24.15.24.15.24.15.24.04.07.19-.22.19-.22.19-.22.19-.22.19-.22.19-.22.19-.22.19-.22.19-.22.19-.22.19-.22.19-.22.19-.22.19-.22.19-.22.19-.22.19-.22.05-.06-.12-.26-.12-.26-.12-.26-.1-.21.02-.28.02-.28.02-.28.02-.28.02-.28.02-.28.02-.28.02-.28.02-.28.02-.28.02-.28v-.19l.2-.21.19-.21.19-.21.19-.21.19-.21.19-.21.19-.21.19-.21.19-.21.19-.21.03-.03-.23-.16-.23-.16-.23-.16-.23-.16-.23-.16-.23-.16-.23-.16-.23-.16-.23-.16-.23-.16-.23-.16-.23-.16-.23-.16-.23-.16-.23-.16-.23-.16-.05-.03-.19.21-.19.21-.19.21-.19.21-.19.21-.19.21-.19.21-.19.21-.19.21-.19.21-.19.21-.19.21-.19.21-.08.09v.28l-.03.28v.28l-.03.28v.28l-.03.28v.28l-.03.28v.28l-.03.28v.28l-.03.28v.28l-.03.28v.28l-.03.28v.28l-.03.28v.28l-.03.28v.28l-.03.28v.28l-.03.28v.12"/><path d="M225.82,3.97l-.24-.16-.24-.16-.24-.16-.24-.16-.24-.16-.24-.16-.24-.16-.24-.16-.15-.1-.19.21-.19.21-.19.21-.19.21-.19.21-.19.21-.19.21-.19.21-.19.21-.19.21-.19.21-.19.21-.19.21-.08.08v.28l-.03.28v.28l-.03.28v.28l-.03.28v.28l-.03.28v.28l-.03.28v.28l-.03.28v.28l-.03.28v.28l-.03.28v.28l-.03.28v.28l-.03.28v.1l-.25.15-.24.15-.24.15-.24.15-.17.11.23.17.23.17.23.17.23.17.23.17.23.17.23.17.23.17.23.17.23.17.23.17.23.17.23.17.23.17.23.17.2.14.24-.16.24-.16.24-.16.24-.16.24-.16.24-.16.24-.16.24-.16.05-.04v-.28l.03-.28v-.28l.03-.28v-.28l.03-.28v-.28l.03-.28v-.28l.03-.28v-.28l.03-.28v-.28l.03-.28v-.28l.03-.28v-.28l.03-.28v-.28l.03-.28v-.28l.03-.28v-.28l.03-.28v-.28l.03-.28v-.28l.03-.28v-.28l.03-.28v-.28l.03-.28v-.19"/><path d="M208.29,5.42v.28l-.03.28v.28l-.03.28v.28l-.03.28v.28l-.03.28v.28l-.03.28v.28l-.03.28v.28l-.03.28v.28l-.03.28v.28l-.03.28v.28l-.03.28v.28l-.03.28v.28l-.03.28v.28l-.03.35.24.16.24.16.24.16.24.16.24.16.24.16.24.16.24.16.24.16.24.16.15.1.19-.22.19-.22.19-.22.19-.22.19-.22.19-.22.19-.22.19-.22.19-.22.19-.22.19-.22.19-.22.19-.22.11-.13-.12-.26-.12-.26-.12-.26-.1-.21.02-.28.02-.28.02-.28.02-.28.02-.28.02-.28.02-.28.02-.28.02-.28.02-.28.02-.28v-.19l.2-.21.19-.21.19-.21.19-.21.19-.21.19-.21.19-.21.19-.21.19-.21.19-.21.03-.03-.23-.16-.23-.16-.23-.16-.23-.16-.23-.16-.23-.16-.23-.16-.23-.16-.23-.16-.23-.16-.23-.16-.23-.16-.23-.16-.23-.16-.23-.16-.23-.16-.05-.03-.19.21-.19.21-.19.21-.19.21-.19.21-.19.21-.19.21-.19.21-.19.21-.19.21-.19.21-.19.21-.19.21-.08.09"/><path d="M213.26.03l-.19.21-.19.21-.19.21-.19.21-.19.21-.19.21-.19.21-.19.21-.19.21-.2.22.24.16.24.16.24.16.24.16.24.16.24.16.24.16.24.16.24.16.24.16.24.16.24.16.24.16.24.16.24.16.24.16.06.04h5.78l.19-.21.19-.21.19-.21.19-.21.19-.21.19-.21.19-.21.19-.21.19-.21.19-.21.19-.21.14-.16-.24-.16-.24-.16-.24-.16-.24-.16-.24-.16-.24-.16-.24-.16-.24-.16-.24-.16-.24-.16-.24-.16-.24-.16-.24-.16-.24-.16L219.86,0h-6.56"/><path d="M211,14.92l.24.16.24.16.24.16.24.16.24.16.24.16.24.16.24.16.24.16.24.16.24.16.24.16.24.16h5.78l.24-.16.24-.16.24-.16.24-.16.24-.16.24-.16.24-.16.24-.16.24-.16.24-.16.24-.16.24-.16.15-.1-.23-.17-.23-.17-.23-.17-.23-.17-.23-.17-.23-.17-.23-.17-.23-.17-.23-.17-.23-.17-.23-.17-.23-.17-.23-.17-.23-.17-.23-.17-.23-.17h-5.85l-.19.21-.19.21-.19.21-.19.21-.19.21-.19.21-.19.21-.19.21-.19.21-.19.21-.19.21-.19.21-.05.06"/><path d="M209.05,28.2l.15.24.15.24.15.24.15.24.06.1h9.09l.24-.16.24-.16.24-.16.24-.16.24-.16.24-.16.17-.12-.15-.24-.15-.24-.15-.24-.15-.24-.15-.24-.15-.24-.15-.24-.15-.24-.15-.24-.15-.24-.15-.24-.15-.24-.15-.24-.15-.24-.11-.18h-6l-.19.21-.19.21-.19.21-.19.21-.19.21-.19.21-.19.21-.19.21-.19.21-.19.21-.19.21-.19.21-.19.21-.19.21-.19.21-.19.21-.17.2"/><path d="M260.56,23.49l-.24.15-.24.15-.24.15-.24.15-.17.11.15.24.15.24.15.24.15.24.15.24.15.24.15.24.15.24.15.24.15.24.15.24.15.24.15.24.15.24.13.22.24-.16.24-.16.24-.16.24-.16.24-.16.24-.16.24-.16.24-.16.24-.16.24-.16.24-.16.24-.16.24-.16.24-.16.14-.09v-.28l.03-.28v-.28l.03-.28v-.28l.03-.28v-.28l.03-.28v-.28l.03-.28v-.28l.03-.28v-.28l.03-.28v-.28l.03-.28v-.28l.03-.28v-.28l.03-.28v-.28l.03-.28v-.28l.03-.28v-.28l.03-.28v-.28l.03-.28v-.28l.03-.28v-.28l.03-.37-.23-.17-.23-.17-.23-.17-.23-.17-.23-.17-.06-.04-.24.16-.24.16-.24.16-.24.16-.24.16-.24.16-.24.16-.24.16-.24.16-.24.16-.24.16-.24.16-.24.16-.24.16-.08.05v.28l-.03.28v.28l-.03.28v.28l-.03.28v.28l-.03.28v.28l-.03.28v.28l-.03.28v.28l-.03.28v.28l-.03.28v.28l-.03.28v.28l-.03.28v.1"/><path d="M247.6,24.65l.15.24.15.24.15.24.15.24.15.24.15.24.15.24.15.24.15.24.15.24.15.24.15.24.04.07.19-.22.19-.22.19-.22.19-.22.19-.22.19-.22.19-.22.19-.22.19-.22.19-.22.19-.22.19-.22.19-.22.19-.22.19-.22.19-.22.19-.22.05-.06-.12-.26-.12-.26-.12-.26-.1-.21.02-.28.02-.28.02-.28.02-.28.02-.28.02-.28.02-.28.02-.28.02-.28.02-.28.02-.28v-.19l.2-.21.19-.21.19-.21.19-.21.19-.21.19-.21.19-.21.19-.21.19-.21.19-.21.03-.03-.23-.16-.23-.16-.23-.16-.23-.16-.23-.16-.23-.16-.23-.16-.23-.16-.23-.16-.23-.16-.23-.16-.23-.16-.23-.16-.23-.16-.23-.16-.23-.16-.05-.03-.19.21-.19.21-.19.21-.19.21-.19.21-.19.21-.19.21-.19.21-.19.21-.19.21-.19.21-.19.21-.19.21-.08.09v.28l-.03.28v.28l-.03.28v.28l-.03.28v.28l-.03.28v.28l-.03.28v.28l-.03.28v.28l-.03.28v.28l-.03.28v.28l-.03.28v.28l-.03.28v.28l-.03.28v.28l-.03.28v.12"/><path d="M266.52,3.97l-.24-.16-.24-.16-.24-.16-.24-.16-.24-.16-.24-.16-.24-.16-.24-.16-.15-.1-.19.21-.19.21-.19.21-.19.21-.19.21-.19.21-.19.21-.19.21-.19.21-.19.21-.19.21-.19.21-.19.21-.08.08v.28l-.03.28v.28l-.03.28v.28l-.03.28v.28l-.03.28v.28l-.03.28v.28l-.02.28v.28l-.03.28v.28l-.03.28v.28l-.03.28v.28l-.03.28v.1l-.25.15-.24.15-.24.15-.24.15-.17.11.23.17.23.17.23.17.23.17.23.17.23.17.23.17.23.17.23.17.23.17.23.17.23.17.23.17.23.17.23.17.2.14.24-.16.24-.16.24-.16.24-.16.24-.16.24-.16.24-.16.24-.16.05-.04v-.28l.03-.28v-.28l.03-.28v-.28l.03-.28v-.28l.03-.28v-.28l.03-.28v-.28l.03-.28v-.28l.03-.28v-.28l.03-.28v-.28l.03-.28v-.28l.03-.28v-.28l.03-.28v-.28l.03-.28v-.28l.03-.28v-.28l.03-.28v-.28l.03-.28v-.28l.03-.28v-.19"/><path d="M248.99,5.42v.28l-.03.28v.28l-.03.28v.28l-.03.28v.28l-.03.28v.28l-.03.28v.28l-.03.28v.28l-.02.28v.28l-.03.28v.28l-.03.28v.28l-.03.28v.28l-.03.28v.28l-.03.28v.28l-.03.35.24.16.24.16.24.16.24.16.24.16.24.16.24.16.24.16.24.16.24.16.15.1.19-.22.19-.22.19-.22.19-.22.19-.22.19-.22.19-.22.19-.22.19-.22.19-.22.19-.22.19-.22.19-.22.11-.13-.12-.26-.12-.26-.12-.26-.1-.21.02-.28.02-.28.02-.28.02-.28.02-.28.02-.28.02-.28.02-.28.02-.28.02-.28.02-.28v-.19l.2-.21.19-.21.19-.21.19-.21.19-.21.19-.21.19-.21.19-.21.19-.21.19-.21.03-.03-.23-.16-.23-.16-.23-.16-.23-.16-.23-.16-.23-.16-.23-.16-.23-.16-.23-.16-.23-.16-.23-.16-.23-.16-.23-.16-.23-.16-.23-.16-.23-.16-.05-.03-.19.21-.19.21-.19.21-.19.21-.19.21-.19.21-.19.21-.19.21-.19.21-.19.21-.19.21-.19.21-.19.21-.08.09"/><path d="M253.96.03l-.19.21-.19.21-.19.21-.19.21-.19.21-.19.21-.19.21-.19.21-.19.21-.2.22.24.16.24.16.24.16.24.16.24.16.24.16.24.16.24.16.24.16.24.16.24.16.24.16.24.16.24.16.24.16.24.16.06.04h5.78l.19-.21.19-.21.19-.21.19-.21.19-.21.19-.21.19-.21.19-.21.19-.21.19-.21.19-.21.14-.16-.24-.16-.24-.16-.24-.16-.24-.16-.24-.16-.24-.16-.24-.16-.24-.16-.24-.16-.24-.16-.24-.16-.24-.16-.24-.16-.24-.16L260.56,0h-6.56"/><path d="M249.75,28.2l.15.24.15.24.15.24.15.24.06.1h9.09l.24-.16.24-.16.24-.16.24-.16.24-.16.24-.16.17-.12-.15-.24-.15-.24-.15-.24-.15-.24-.15-.24-.15-.24-.15-.24-.15-.24-.15-.24-.15-.24-.15-.24-.15-.24-.15-.24-.15-.24-.11-.18h-6l-.19.21-.19.21-.19.21-.19.21-.19.21-.19.21-.19.21-.19.21-.19.21-.19.21-.19.21-.19.21-.19.21-.19.21-.19.21-.19.21-.17.2"/><path class="d" d="M5.09,11.73v-2.67H0v-1.76L4.39.24h2.75v7.12h1.66v1.7h-1.66v2.67h-2.05ZM5.09,2.37h-.03L1.99,7.36h3.11V2.37h0Z"/><path class="d" d="M10.04,11.73v-2.29h2.29v2.29h-2.29Z"/><path class="d" d="M14.17,6.05C14.17,2.27,15.55.05,18.22.05s4.05,2.22,4.05,6-1.47,5.88-4.05,5.88-4.05-2.05-4.05-5.88ZM20.18,6.05c0-2.93-.64-4.35-1.95-4.35s-1.95,1.42-1.95,4.35.64,4.21,1.95,4.21,1.95-1.39,1.95-4.21Z"/><path class="d" d="M36.86,11.73v-5.65c0-.93-.5-1.2-1.04-1.2s-1.09.27-1.66.88v5.97h-1.95v-5.51c0-.83-.27-1.34-.99-1.34-.53,0-1.1.29-1.73.94v5.91h-1.94V3.43h1.79v1.01c.75-.75,1.67-1.22,2.51-1.22,1.04,0,1.67.38,2.02,1.28.9-.85,1.68-1.28,2.69-1.28,1.42,0,2.24.77,2.24,2.61v5.91h-1.94Z"/><path class="d" d="M50.1,11.73v-5.65c0-.93-.5-1.2-1.04-1.2s-1.09.27-1.66.88v5.97h-1.95v-5.51c0-.83-.27-1.34-.99-1.34-.53,0-1.1.29-1.73.94v5.91h-1.94V3.43h1.79v1.01c.75-.75,1.67-1.22,2.51-1.22,1.04,0,1.67.38,2.02,1.28.9-.85,1.68-1.28,2.69-1.28,1.42,0,2.24.77,2.24,2.61v5.91h-1.94Z"/><path class="d" d="M4.25,101.98c-1.9,0-3.31-.5-4.24-2.29l1.66-.94c.64,1.17,1.34,1.5,2.46,1.5,1.31,0,2.26-.66,2.26-1.89,0-1.33-1.15-1.87-3.02-1.87h-.67v-1.62h.61c1.84,0,2.75-.56,2.75-1.6,0-.86-.64-1.46-1.86-1.46-.9,0-1.65.27-2.29,1.18l-1.41-1.09c.98-1.28,2.27-1.81,3.92-1.81,2.27,0,3.71,1.12,3.71,2.98,0,1.14-.69,2.1-2.08,2.55v.03c1.57.43,2.38,1.42,2.38,2.88,0,2.21-1.78,3.44-4.19,3.44h0Z"/><path class="d" d="M10.04,101.79v-2.29h2.29v2.29h-2.29Z"/><path class="d" d="M14.17,96.1c0-3.78,1.38-6,4.05-6s4.05,2.22,4.05,6-1.47,5.88-4.05,5.88-4.05-2.05-4.05-5.88ZM20.18,96.1c0-2.93-.64-4.35-1.95-4.35s-1.95,1.42-1.95,4.35.64,4.21,1.95,4.21,1.95-1.39,1.95-4.21Z"/><path class="d" d="M36.86,101.79v-5.65c0-.93-.5-1.2-1.04-1.2s-1.09.27-1.66.88v5.97h-1.95v-5.51c0-.83-.27-1.34-.99-1.34-.53,0-1.1.29-1.73.94v5.91h-1.94v-8.31h1.79v1.01c.75-.75,1.67-1.22,2.51-1.22,1.04,0,1.67.38,2.02,1.28.9-.85,1.68-1.28,2.69-1.28,1.42,0,2.24.77,2.24,2.61v5.91s-1.94,0-1.94,0Z"/><path class="d" d="M50.1,101.79v-5.65c0-.93-.5-1.2-1.04-1.2s-1.09.27-1.66.88v5.97h-1.95v-5.51c0-.83-.27-1.34-.99-1.34-.53,0-1.1.29-1.73.94v5.91h-1.94v-8.31h1.79v1.01c.75-.75,1.67-1.22,2.51-1.22,1.04,0,1.67.38,2.02,1.28.9-.85,1.68-1.28,2.69-1.28,1.42,0,2.24.77,2.24,2.61v5.91s-1.94,0-1.94,0Z"/><path d="M83.41,108.54l.15.24.15.24.15.24.15.24.15.24.15.24.15.24.15.24.15.24.03.05.19-.22.19-.22.19-.22.19-.22.19-.22.19-.22.19-.22.19-.22.19-.22.19-.22.19-.22.19-.22.18-.2-.12-.26-.12-.26-.1-.22.02-.28.02-.28.02-.28.02-.28.02-.28.02-.28.02-.28.02-.28v-.21l.2-.21.19-.21.19-.21.19-.21.19-.21.19-.21.19-.21.12-.13-.23-.16-.23-.16-.23-.16-.23-.16-.23-.16-.23-.16-.23-.16-.23-.16-.23-.16-.23-.16-.23-.16-.23-.16-.04-.03-.19.21-.19.21-.19.21-.19.21-.19.21-.19.21-.19.21-.19.21-.19.21-.21.23v.28l-.03.28v.28l-.03.28v.28l-.03.28v.28l-.03.28v.28l-.03.28v.28l-.03.28v.28l-.03.28v.28l-.03.28v.28l-.03.28v.09"/><path d="M97.59,93.03l-.24-.16-.24-.16-.24-.16-.24-.16-.24-.16-.24-.16-.11-.07-.19.21-.19.21-.19.21-.19.21-.19.21-.19.21-.19.21-.19.21-.19.21-.2.22v.28l-.03.28v.28l-.03.28v.28l-.03.28v.28l-.03.28v.28l-.03.28v.28l-.03.28v.28l-.03.28v.28l-.02.08-.24.15-.24.15-.24.15-.13.08.23.17.23.17.23.17.23.17.23.17.23.17.23.17.23.17.23.17.23.17.23.17.21.15.24-.16.24-.16.24-.16.24-.16.24-.16.24-.16.04-.03v-.28l.03-.28v-.28l.03-.28v-.28l.03-.28v-.28l.03-.28v-.28l.03-.28v-.28l.03-.28v-.28l.03-.28v-.28l.03-.28v-.28l.03-.28v-.28l.03-.28v-.28l.03-.28v-.28l.03-.28v-.14"/><path d="M88.17,90.08l-.19.21-.19.21-.19.21-.19.21-.19.21-.19.21-.19.21-.11.11.24.16.24.16.24.16.24.16.24.16.24.16.24.16.24.16.24.16.24.16.24.16.24.16.04.03h4.34l.19-.21.19-.21.19-.21.19-.21.19-.21.19-.21.19-.21.19-.21.15-.17-.24-.16-.24-.16-.24-.16-.24-.16-.24-.16-.24-.16-.24-.16-.24-.16-.24-.16-.24-.16-.15-.1h-4.92"/><path d="M86.48,101.25l.24.16.24.16.24.16.24.16.24.16.24.16.24.16.24.16.24.16.18.12h4.34l.24-.16.24-.16.24-.16.24-.16.24-.16.24-.16.24-.16.24-.16.24-.16.12-.08-.23-.17-.23-.17-.23-.17-.23-.17-.23-.17-.23-.17-.23-.17-.23-.17-.23-.17-.23-.17-.23-.17-.23-.17h-4.38l-.19.21-.19.21-.19.21-.19.21-.19.21-.19.21-.19.21-.19.21-.19.21-.04.04"/><path d="M85.02,111.21l.15.24.15.24.15.24.05.08h6.82l.24-.16.24-.16.24-.16.24-.16.24-.16h.01l-.15-.25-.15-.24-.15-.24-.15-.24-.15-.24-.15-.24-.15-.24-.15-.24-.15-.24-.15-.24-.15-.26h-4.5l-.19.21-.19.21-.19.21-.19.21-.19.21-.19.21-.19.21-.19.21-.19.21-.19.21-.19.21-.19.21-.13.15"/><path d="M77.13,107.68l-.24.15-.24.15-.24.15-.13.08.15.24.15.24.15.24.15.24.15.24.15.24.15.24.15.24.15.24.15.24.15.24.03.04.24-.16.24-.16.24-.16.24-.16.24-.16.24-.16.24-.16.24-.16.24-.16.24-.16.22-.15v-.28l.03-.28v-.28l.03-.28v-.28l.03-.28v-.28l.03-.28v-.28l.03-.28v-.28l.03-.28v-.28l.03-.28v-.28l.03-.28v-.28l.03-.28v-.28l.03-.28v-.28l.03-.28v-.28l.03-.35-.23-.17-.23-.17-.23-.17-.22-.16-.24.16-.24.16-.24.16-.24.16-.24.16-.24.16-.24.16-.24.16-.24.16-.24.16-.18.12v.28l-.03.28v.28l-.03.28v.28l-.03.28v.28l-.03.28v.28l-.03.28v.28l-.03.28v.28l-.03.28v.28l-.02.08"/><path d="M81.6,93.03l-.24-.16-.24-.16-.24-.16-.24-.16-.24-.16-.24-.16-.11-.07-.19.21-.19.21-.19.21-.19.21-.19.21-.19.21-.19.21-.19.21-.19.21-.2.22v.28l-.03.28v.28l-.03.28v.28l-.03.28v.28l-.03.28v.28l-.03.28v.28l-.03.28v.28l-.03.28v.28l-.02.08-.24.15-.24.15-.24.15-.13.08.23.17.23.17.23.17.23.17.23.17.23.17.23.17.23.17.23.17.23.17.23.17.21.15.24-.16.24-.16.24-.16.24-.16.24-.16.24-.16.04-.03v-.28l.03-.28v-.28l.03-.28v-.28l.03-.28v-.28l.03-.28v-.28l.03-.28v-.28l.03-.28v-.28l.03-.28v-.28l.03-.28v-.28l.03-.28v-.28l.03-.28v-.28l.03-.28v-.28l.03-.28v-.14"/><path d="M109.12,107.68l-.24.15-.24.15-.24.15-.13.08.15.24.15.24.15.24.15.24.15.24.15.24.15.24.15.24.15.24.15.24.15.24.03.04.24-.16.24-.16.24-.16.24-.16.24-.16.24-.16.24-.16.24-.16.24-.16.24-.16.22-.15v-.28l.03-.28v-.28l.03-.28v-.28l.03-.28v-.28l.03-.28v-.28l.03-.28v-.28l.03-.28v-.28l.03-.28v-.28l.03-.28v-.28l.03-.28v-.28l.03-.28v-.28l.03-.28v-.28l.03-.35-.23-.17-.23-.17-.23-.17-.22-.16-.24.16-.24.16-.24.16-.24.16-.24.16-.24.16-.24.16-.24.16-.24.16-.24.16-.18.12v.28l-.03.28v.28l-.03.28v.28l-.03.28v.28l-.03.28v.28l-.03.28v.28l-.03.28v.28l-.03.28v.28l-.02.08"/><path d="M113.59,93.03l-.24-.16-.24-.16-.24-.16-.24-.16-.24-.16-.24-.16-.11-.07-.19.21-.19.21-.19.21-.19.21-.19.21-.19.21-.19.21-.19.21-.19.21-.2.22v.28l-.03.28v.28l-.03.28v.28l-.03.28v.28l-.03.28v.28l-.03.28v.28l-.03.28v.28l-.03.28v.28l-.02.08-.24.15-.24.15-.24.15-.13.08.23.17.23.17.23.17.23.17.23.17.23.17.23.17.23.17.23.17.23.17.23.17.21.15.24-.16.24-.16.24-.16.24-.16.24-.16.24-.16.04-.03v-.28l.03-.28v-.28l.03-.28v-.28l.03-.28v-.28l.03-.28v-.28l.03-.28v-.28l.03-.28v-.28l.03-.28v-.28l.03-.28v-.28l.03-.28v-.28l.03-.28v-.28l.03-.28v-.28l.03-.28v-.14"/><path d="M104.16,90.08l-.19.21-.19.21-.19.21-.19.21-.19.21-.19.21-.19.21-.11.11.24.16.24.16.24.16.24.16.24.16.24.16.24.16.24.16.24.16.24.16.24.16.24.16.04.03h4.34l.19-.21.19-.21.19-.21.19-.21.19-.21.19-.21.19-.21.19-.21.15-.17-.24-.16-.24-.16-.24-.16-.24-.16-.24-.16-.24-.16-.24-.16-.24-.16-.24-.16-.24-.16-.15-.1h-4.92"/><path d="M102.47,101.25l.24.16.24.16.24.16.24.16.24.16.24.16.24.16.24.16.24.16.18.12h4.34l.24-.16.24-.16.24-.16.24-.16.24-.16.24-.16.24-.16.24-.16.24-.16.12-.08-.23-.17-.23-.17-.23-.17-.23-.17-.23-.17-.23-.17-.23-.17-.23-.17-.23-.17-.23-.17-.23-.17-.23-.17h-4.38l-.19.21-.19.21-.19.21-.19.21-.19.21-.19.21-.19.21-.19.21-.19.21-.04.04"/><path d="M101.01,111.21l.15.24.15.24.15.24.05.08h6.82l.24-.16.24-.16.24-.16.24-.16.24-.16h.01l-.15-.25-.15-.24-.15-.24-.15-.24-.15-.24-.15-.24-.15-.24-.15-.24-.15-.24-.15-.24-.15-.26h-4.5l-.19.21-.19.21-.19.21-.19.21-.19.21-.19.21-.19.21-.19.21-.19.21-.19.21-.19.21-.19.21-.13.15"/><path d="M212.96,111.21l.15.24.15.24.15.24.05.08h6.82l.24-.16.24-.16.24-.16.24-.16.24-.16h0l-.15-.25-.15-.24-.15-.24-.15-.24-.15-.24-.15-.24-.15-.24-.15-.24-.15-.24-.15-.24-.15-.26h-4.5l-.19.21-.19.21-.19.21-.19.21-.19.21-.19.21-.19.21-.19.21-.19.21-.19.21-.19.21-.19.21-.13.15"/><path d="M116.43,94.13v.28l-.03.28v.28l-.03.28v.28l-.03.28v.28l-.03.28v.28l-.03.28v.28l-.03.28v.28l-.03.28v.28l-.03.28v.28l-.03.28v.28l-.02.19.24.16.24.16.24.16.24.16.24.16.24.16.24.16.23.16.19-.22.19-.22.19-.22.19-.22.19-.22.19-.22.19-.22.19-.22.19-.22.19-.22.04-.04-.12-.26-.12-.26-.1-.22.02-.28.02-.28.02-.28.02-.28.02-.28.02-.28.02-.28.02-.28v-.21l.2-.21.19-.21.19-.21.19-.21.19-.21.19-.21.19-.21.12-.13-.23-.16-.23-.16-.23-.16-.23-.16-.23-.16-.23-.16-.23-.16-.23-.16-.23-.16-.23-.16-.23-.16-.23-.16-.04-.03-.19.21-.19.21-.19.21-.19.21-.19.21-.19.21-.19.21-.19.21-.19.21-.21.23"/><path d="M129.58,93.03l-.24-.16-.24-.16-.24-.16-.24-.16-.24-.16-.24-.16-.11-.07-.19.21-.19.21-.19.21-.19.21-.19.21-.19.21-.19.21-.19.21-.19.21-.2.22v.28l-.03.28v.28l-.03.28v.28l-.03.28v.28l-.03.28v.28l-.03.28v.28l-.03.28v.28l-.03.28v.28l-.02.08-.24.15-.24.15-.24.15-.13.08.23.17.23.17.23.17.23.17.23.17.23.17.23.17.23.17.23.17.23.17.23.17.21.15.24-.16.24-.16.24-.16.24-.16.24-.16.24-.16.04-.03v-.28l.03-.28v-.28l.03-.28v-.28l.03-.28v-.28l.03-.28v-.28l.03-.28v-.28l.03-.28v-.28l.03-.28v-.28l.03-.28v-.28l.03-.28v-.28l.03-.28v-.28l.03-.28v-.28l.03-.28v-.14"/><path d="M125.11,107.68l-.24.15-.24.15-.24.15-.13.08.15.24.15.24.15.24.15.24.15.24.15.24.15.24.15.24.15.24.15.24.15.24.03.04.24-.16.24-.16.24-.16.24-.16.24-.16.24-.16.24-.16.24-.16.24-.16.24-.16.22-.15v-.28l.03-.28v-.28l.03-.28v-.28l.03-.28v-.28l.03-.28v-.28l.03-.28v-.28l.03-.28v-.28l.03-.28v-.28l.03-.28v-.28l.03-.28v-.28l.03-.28v-.28l.03-.28v-.28l.03-.35-.23-.17-.23-.17-.23-.17-.22-.16-.24.16-.24.16-.24.16-.24.16-.24.16-.24.16-.24.16-.24.16-.24.16-.24.16-.18.12v.28l-.03.28v.28l-.03.28v.28l-.03.28v.28l-.03.28v.28l-.03.28v.28l-.03.28v.28l-.03.28v.28l-.02.08"/><path d="M133,111.21l.15.24.15.24.15.24.05.08h6.82l.24-.16.24-.16.24-.16.24-.16.24-.16h0l-.15-.25-.15-.24-.15-.24-.15-.24-.15-.24-.15-.24-.15-.24-.15-.24-.15-.24-.15-.24-.15-.26h-4.5l-.19.21-.19.21-.19.21-.19.21-.19.21-.19.21-.19.21-.19.21-.19.21-.19.21-.19.21-.19.21-.13.15"/><path d="M134.46,101.25l.24.16.24.16.24.16.24.16.24.16.24.16.24.16.24.16.24.16.18.12h4.34l.24-.16.24-.16.24-.16.24-.16.24-.16.24-.16.24-.16.24-.16.24-.16.12-.08-.23-.17-.23-.17-.23-.17-.23-.17-.23-.17-.23-.17-.23-.17-.23-.17-.23-.17-.23-.17-.23-.17-.23-.17h-4.38l-.19.21-.19.21-.19.21-.19.21-.19.21-.19.21-.19.21-.19.21-.19.21-.04.04"/><path d="M216.12,90.08l-.19.21-.19.21-.19.21-.19.21-.19.21-.19.21-.19.21-.11.11.24.16.24.16.24.16.24.16.24.16.24.16.24.16.24.16.24.16.24.16.24.16.24.16.04.03h4.34l.19-.21.19-.21.19-.21.19-.21.19-.21.19-.21.19-.21.19-.21.15-.17-.24-.16-.24-.16-.24-.16-.24-.16-.24-.16-.24-.16-.24-.16-.24-.16-.24-.16-.24-.16-.15-.1h-4.92"/><path d="M212.39,94.13v.28l-.03.28v.28l-.03.28v.28l-.03.28v.28l-.02.28v.28l-.03.28v.28l-.03.28v.28l-.03.28v.28l-.03.28v.28l-.03.28v.28l-.02.19.24.16.24.16.24.16.24.16.24.16.24.16.24.16.23.16.19-.22.19-.22.19-.22.19-.22.19-.22.19-.22.19-.22.19-.22.19-.22.19-.22.04-.04-.12-.26-.12-.26-.1-.22.02-.28.02-.28.02-.28.02-.28.02-.28.02-.28.02-.28.02-.28v-.21l.2-.21.19-.21.19-.21.19-.21.19-.21.19-.21.19-.21.12-.13-.23-.16-.23-.16-.23-.16-.23-.16-.23-.16-.23-.16-.23-.16-.23-.16-.23-.16-.23-.16-.23-.16-.23-.16-.04-.03-.19.21-.19.21-.19.21-.19.21-.19.21-.19.21-.19.21-.19.21-.19.21-.21.23"/><path d="M225.54,93.03l-.24-.16-.24-.16-.24-.16-.24-.16-.24-.16-.24-.16-.11-.07-.19.21-.19.21-.19.21-.19.21-.19.21-.19.21-.19.21-.19.21-.19.21-.2.22v.28l-.03.28v.28l-.03.28v.28l-.03.28v.28l-.03.28v.28l-.03.28v.28l-.03.28v.28l-.03.28v.28l-.02.08-.24.15-.24.15-.24.15-.13.08.23.17.23.17.23.17.23.17.23.17.23.17.23.17.23.17.23.17.23.17.23.17.21.15.24-.16.24-.16.24-.16.24-.16.24-.16.24-.16.04-.03v-.28l.03-.28v-.28l.03-.28v-.28l.03-.28v-.28l.03-.28v-.28l.03-.28v-.28l.03-.28v-.28l.03-.28v-.28l.03-.28v-.28l.03-.28v-.28l.03-.28v-.28l.03-.28v-.28l.03-.28v-.14"/><path d="M118.47,101.25l.24.16.24.16.24.16.24.16.24.16.24.16.24.16.24.16.24.16.18.12h4.34l.24-.16.24-.16.24-.16.24-.16.24-.16.24-.16.24-.16.24-.16.24-.16.12-.08-.23-.17-.23-.17-.23-.17-.23-.17-.23-.17-.23-.17-.23-.17-.23-.17-.23-.17-.23-.17-.23-.17-.23-.17h-4.38l-.19.21-.19.21-.19.21-.19.21-.19.21-.19.21-.19.21-.19.21-.19.21-.04.04"/><path d="M211.35,108.54l.15.24.15.24.15.24.15.24.15.24.15.24.15.24.15.24.15.24.03.05.19-.22.19-.22.19-.22.19-.22.19-.22.19-.22.19-.22.19-.22.19-.22.19-.22.19-.22.19-.22.18-.2-.12-.26-.12-.26-.1-.22.02-.28.02-.28.02-.28.02-.28.02-.28.02-.28.02-.28.02-.28v-.21l.2-.21.19-.21.19-.21.19-.21.19-.21.19-.21.19-.21.12-.13-.23-.16-.23-.16-.23-.16-.23-.16-.23-.16-.23-.16-.23-.16-.23-.16-.23-.16-.23-.16-.23-.16-.23-.16-.04-.03-.19.21-.19.21-.19.21-.19.21-.19.21-.19.21-.19.21-.19.21-.19.21-.21.23v.28l-.03.28v.28l-.03.28v.28l-.03.28v.28l-.03.28v.28l-.03.28v.28l-.03.28v.28l-.03.28v.28l-.03.28v.28l-.03.28v.09"/><path d="M136.15,90.08l-.19.21-.19.21-.19.21-.19.21-.19.21-.19.21-.19.21-.11.11.24.16.24.16.24.16.24.16.24.16.24.16.24.16.24.16.24.16.24.16.24.16.24.16.04.03h4.34l.19-.21.19-.21.19-.21.19-.21.19-.21.19-.21.19-.21.19-.21.15-.17-.24-.16-.24-.16-.24-.16-.24-.16-.24-.16-.24-.16-.24-.16-.24-.16-.24-.16-.24-.16-.15-.1h-4.92"/><path d="M132.42,94.13v.28l-.03.28v.28l-.03.28v.28l-.03.28v.28l-.03.28v.28l-.03.28v.28l-.03.28v.28l-.03.28v.28l-.03.28v.28l-.03.28v.28l-.02.19.24.16.24.16.24.16.24.16.24.16.24.16.24.16.23.16.19-.22.19-.22.19-.22.19-.22.19-.22.19-.22.19-.22.19-.22.19-.22.19-.22.04-.04-.12-.26-.12-.26-.1-.22.02-.28.02-.28.02-.28.02-.28.02-.28.02-.28.02-.28.02-.28v-.21l.21-.21.19-.21.19-.21.19-.21.19-.21.19-.21.19-.21.12-.13-.23-.16-.23-.16-.23-.16-.23-.16-.23-.16-.23-.16-.23-.16-.23-.16-.23-.16-.23-.16-.23-.16-.23-.16-.04-.03-.19.21-.19.21-.19.21-.19.21-.19.21-.19.21-.19.21-.19.21-.19.21-.21.23"/><path d="M141.1,107.68l-.24.15-.24.15-.24.15-.13.08.15.24.15.24.15.24.15.24.15.24.15.24.15.24.15.24.15.24.15.24.15.24.03.04.24-.16.24-.16.24-.16.24-.16.24-.16.24-.16.24-.16.24-.16.24-.16.24-.16.22-.15v-.28l.03-.28v-.28l.03-.28v-.28l.03-.28v-.28l.03-.28v-.28l.03-.28v-.28l.03-.28v-.28l.03-.28v-.28l.03-.28v-.28l.03-.28v-.28l.03-.28v-.28l.03-.28v-.28l.03-.35-.23-.17-.23-.17-.23-.17-.22-.16-.24.16-.24.16-.24.16-.24.16-.24.16-.24.16-.24.16-.24.16-.24.16-.24.16-.18.12v.28l-.03.28v.28l-.03.28v.28l-.03.28v.28l-.03.28v.28l-.03.28v.28l-.03.28v.28l-.03.28v.28l-.02.08"/><path d="M157.1,107.68l-.24.15-.24.15-.24.15-.13.08.15.24.15.24.15.24.15.24.15.24.15.24.15.24.15.24.15.24.15.24.15.24.03.04.24-.16.24-.16.24-.16.24-.16.24-.16.24-.16.24-.16.24-.16.24-.16.24-.16.22-.15v-.28l.03-.28v-.28l.03-.28v-.28l.03-.28v-.28l.03-.28v-.28l.03-.28v-.28l.03-.28v-.28l.03-.28v-.28l.03-.28v-.28l.03-.28v-.28l.03-.28v-.28l.03-.28v-.28l.03-.35-.23-.17-.23-.17-.23-.17-.22-.16-.24.16-.24.16-.24.16-.24.16-.24.16-.24.16-.24.16-.24.16-.24.16-.24.16-.18.12v.28l-.03.28v.28l-.03.28v.28l-.03.28v.28l-.03.28v.28l-.03.28v.28l-.03.28v.28l-.03.28v.28l-.02.08"/><path d="M147.38,108.54l.15.24.15.24.15.24.15.24.15.24.15.24.15.24.15.24.15.24.03.05.19-.22.19-.22.19-.22.19-.22.19-.22.19-.22.19-.22.19-.22.19-.22.19-.22.19-.22.19-.22.18-.2-.12-.26-.12-.26-.1-.22.02-.28.02-.28.02-.28.02-.28.02-.28.02-.28.02-.28.02-.28v-.21l.2-.21.19-.21.19-.21.19-.21.19-.21.19-.21.19-.21.12-.13-.23-.16-.23-.16-.23-.16-.23-.16-.23-.16-.23-.16-.23-.16-.23-.16-.23-.16-.23-.16-.23-.16-.23-.16-.04-.03-.19.21-.19.21-.19.21-.19.21-.19.21-.19.21-.19.21-.19.21-.19.21-.21.23v.28l-.03.28v.28l-.03.28v.28l-.03.28v.28l-.03.28v.28l-.03.28v.28l-.03.28v.28l-.03.28v.28l-.03.28v.28l-.03.28v.09"/><path d="M148.42,94.13v.28l-.03.28v.28l-.03.28v.28l-.03.28v.28l-.03.28v.28l-.03.28v.28l-.03.28v.28l-.03.28v.28l-.03.28v.28l-.03.28v.28l-.02.19.24.16.24.16.24.16.24.16.24.16.24.16.24.16.23.16.19-.22.19-.22.19-.22.19-.22.19-.22.19-.22.19-.22.19-.22.19-.22.19-.22.04-.04-.12-.26-.12-.26-.1-.22.02-.28.02-.28.02-.28.02-.28.02-.28.02-.28.02-.28.02-.28v-.21l.2-.21.19-.21.19-.21.19-.21.19-.21.19-.21.19-.21.12-.13-.23-.16-.23-.16-.23-.16-.23-.16-.23-.16-.23-.16-.23-.16-.23-.16-.23-.16-.23-.16-.23-.16-.23-.16-.04-.03-.19.21-.19.21-.19.21-.19.21-.19.21-.19.21-.19.21-.19.21-.19.21-.21.23"/><path d="M152.14,90.08l-.19.21-.19.21-.19.21-.19.21-.19.21-.19.21-.19.21-.11.11.24.16.24.16.24.16.24.16.24.16.24.16.24.16.24.16.24.16.24.16.24.16.24.16.04.03h4.34l.19-.21.19-.21.19-.21.19-.21.19-.21.19-.21.19-.21.19-.21.15-.17-.24-.16-.24-.16-.24-.16-.24-.16-.24-.16-.24-.16-.24-.16-.24-.16-.24-.16-.24-.16-.15-.1h-4.92"/><path d="M150.45,101.25l.24.16.24.16.24.16.24.16.24.16.24.16.24.16.24.16.24.16.18.12h4.34l.24-.16.24-.16.24-.16.24-.16.24-.16.24-.16.24-.16.24-.16.24-.16.12-.08-.23-.17-.23-.17-.23-.17-.23-.17-.23-.17-.23-.17-.23-.17-.23-.17-.23-.17-.23-.17-.23-.17-.23-.17h-4.38l-.19.21-.19.21-.19.21-.19.21-.19.21-.19.21-.19.21-.19.21-.19.21-.04.04"/><path d="M148.99,111.21l.15.24.15.24.15.24.05.08h6.82l.24-.16.24-.16.24-.16.24-.16.24-.16h0l-.15-.25-.15-.24-.15-.24-.15-.24-.15-.24-.15-.24-.15-.24-.15-.24-.15-.24-.15-.24-.15-.26h-4.5l-.19.21-.19.21-.19.21-.19.21-.19.21-.19.21-.19.21-.19.21-.19.21-.19.21-.19.21-.19.21-.13.15"/><path d="M173.09,107.68l-.24.15-.24.15-.24.15-.13.08.15.24.15.24.15.24.15.24.15.24.15.24.15.24.15.24.15.24.15.24.15.24.03.04.24-.16.24-.16.24-.16.24-.16.24-.16.24-.16.24-.16.24-.16.24-.16.24-.16.22-.15v-.28l.03-.28v-.28l.03-.28v-.28l.03-.28v-.28l.03-.28v-.28l.03-.28v-.28l.03-.28v-.28l.03-.28v-.28l.03-.28v-.28l.03-.28v-.28l.03-.28v-.28l.03-.28v-.28l.03-.35-.23-.17-.23-.17-.23-.17-.22-.16-.24.16-.24.16-.24.16-.24.16-.24.16-.24.16-.24.16-.24.16-.24.16-.24.16-.18.12v.28l-.03.28v.28l-.03.28v.28l-.03.28v.28l-.03.28v.28l-.03.28v.28l-.03.28v.28l-.03.28v.28l-.02.08"/><path d="M177.56,93.03l-.24-.16-.24-.16-.24-.16-.24-.16-.24-.16-.24-.16-.11-.07-.19.21-.19.21-.19.21-.19.21-.19.21-.19.21-.19.21-.19.21-.19.21-.2.22v.28l-.03.28v.28l-.03.28v.28l-.03.28v.28l-.03.28v.28l-.03.28v.28l-.03.28v.28l-.03.28v.28l-.02.08-.24.15-.24.15-.24.15-.13.08.23.17.23.17.23.17.23.17.23.17.23.17.23.17.23.17.23.17.23.17.23.17.21.15.24-.16.24-.16.24-.16.24-.16.24-.16.24-.16.04-.03v-.28l.03-.28v-.28l.03-.28v-.28l.03-.28v-.28l.03-.28v-.28l.03-.28v-.28l.03-.28v-.28l.03-.28v-.28l.03-.28v-.28l.03-.28v-.28l.03-.28v-.28l.03-.28v-.28l.03-.28v-.14"/><path d="M168.14,90.08l-.19.21-.19.21-.19.21-.19.21-.19.21-.19.21-.19.21-.11.11.24.16.24.16.24.16.24.16.24.16.24.16.24.16.24.16.24.16.24.16.24.16.24.16.04.03h4.34l.19-.21.19-.21.19-.21.19-.21.19-.21.19-.21.19-.21.19-.21.15-.17-.24-.16-.24-.16-.24-.16-.24-.16-.24-.16-.24-.16-.24-.16-.24-.16-.24-.16-.24-.16-.15-.1h-4.92"/><path d="M198.43,101.25l.24.16.24.16.24.16.24.16.24.16.24.16.24.16.24.16.24.16.18.12h4.34l.24-.16.24-.16.24-.16.24-.16.24-.16.24-.16.24-.16.24-.16.24-.16.12-.08-.23-.17-.23-.17-.23-.17-.23-.17-.23-.17-.23-.17-.23-.17-.23-.17-.23-.17-.23-.17-.23-.17-.23-.17h-4.38l-.19.21-.19.21-.19.21-.19.21-.19.21-.19.21-.19.21-.19.21-.19.21-.04.04"/><path d="M200.12,90.08l-.19.21-.19.21-.19.21-.19.21-.19.21-.19.21-.19.21-.11.11.24.16.24.16.24.16.24.16.24.16.24.16.24.16.24.16.24.16.24.16.24.16.24.16.04.03h4.34l.19-.21.19-.21.19-.21.19-.21.19-.21.19-.21.19-.21.19-.21.15-.17-.24-.16-.24-.16-.24-.16-.24-.16-.24-.16-.24-.16-.24-.16-.24-.16-.24-.16-.24-.16-.15-.1h-4.92"/><path d="M196.4,94.13v.28l-.03.28v.28l-.03.28v.28l-.03.28v.28l-.03.28v.28l-.03.28v.28l-.03.28v.28l-.03.28v.28l-.03.28v.28l-.03.28v.28l-.02.19.24.16.24.16.24.16.24.16.24.16.24.16.24.16.23.16.19-.22.19-.22.19-.22.19-.22.19-.22.19-.22.19-.22.19-.22.19-.22.19-.22.04-.04-.12-.26-.12-.26-.1-.22.02-.28.02-.28.02-.28.02-.28.02-.28.02-.28.02-.28.02-.28v-.21l.2-.21.19-.21.19-.21.19-.21.19-.21.19-.21.19-.21.12-.13-.23-.16-.23-.16-.23-.16-.23-.16-.23-.16-.23-.16-.23-.16-.23-.16-.23-.16-.23-.16-.23-.16-.23-.16-.04-.03-.19.21-.19.21-.19.21-.19.21-.19.21-.19.21-.19.21-.19.21-.19.21-.21.23"/><path d="M209.55,93.03l-.24-.16-.24-.16-.24-.16-.24-.16-.24-.16-.24-.16-.11-.07-.19.21-.19.21-.19.21-.19.21-.19.21-.19.21-.19.21-.19.21-.19.21-.2.22v.28l-.03.28v.28l-.03.28v.28l-.03.28v.28l-.03.28v.28l-.03.28v.28l-.03.28v.28l-.03.28v.28l-.02.08-.24.15-.24.15-.24.15-.13.08.23.17.23.17.23.17.23.17.23.17.23.17.23.17.23.17.23.17.23.17.23.17.21.15.24-.16.24-.16.24-.16.24-.16.24-.16.24-.16.04-.03v-.28l.03-.28v-.28l.03-.28v-.28l.03-.28v-.28l.03-.28v-.28l.03-.28v-.28l.03-.28v-.28l.03-.28v-.28l.03-.28v-.28l.03-.28v-.28l.03-.28v-.28l.03-.28v-.28l.03-.28v-.14"/><path d="M205.08,107.68l-.24.15-.24.15-.24.15-.13.08.15.24.15.24.15.24.15.24.15.24.15.24.15.24.15.24.15.24.15.24.15.24.03.04.24-.16.24-.16.24-.16.24-.16.24-.16.24-.16.24-.16.24-.16.24-.16.24-.16.22-.15v-.28l.03-.28v-.28l.03-.28v-.28l.03-.28v-.28l.03-.28v-.28l.03-.28v-.28l.03-.28v-.28l.03-.28v-.28l.03-.28v-.28l.03-.28v-.28l.03-.28v-.28l.03-.28v-.28l.03-.35-.23-.17-.23-.17-.23-.17-.22-.16-.24.16-.24.16-.24.16-.24.16-.24.16-.24.16-.24.16-.24.16-.24.16-.24.16-.18.12v.28l-.03.28v.28l-.03.28v.28l-.03.28v.28l-.03.28v.28l-.03.28v.28l-.03.28v.28l-.03.28v.28l-.02.08"/><path d="M189.09,107.68l-.24.15-.24.15-.24.15-.13.08.15.24.15.24.15.24.15.24.15.24.15.24.15.24.15.24.15.24.15.24.15.24.03.04.24-.16.24-.16.24-.16.24-.16.24-.16.24-.16.24-.16.24-.16.24-.16.24-.16.22-.15v-.28l.03-.28v-.28l.03-.28v-.28l.03-.28v-.28l.03-.28v-.28l.03-.28v-.28l.03-.28v-.28l.03-.28v-.28l.03-.28v-.28l.03-.28v-.28l.03-.28v-.28l.03-.28v-.28l.03-.35-.23-.17-.23-.17-.23-.17-.22-.16-.24.16-.24.16-.24.16-.24.16-.24.16-.24.16-.24.16-.24.16-.24.16-.24.16-.18.12v.28l-.03.28v.28l-.03.28v.28l-.03.28v.28l-.03.28v.28l-.03.28v.28l-.03.28v.28l-.03.28v.28l-.02.08"/><path d="M179.37,108.54l.15.24.15.24.15.24.15.24.15.24.15.24.15.24.15.24.15.24.03.05.19-.22.19-.22.19-.22.19-.22.19-.22.19-.22.19-.22.19-.22.19-.22.19-.22.19-.22.19-.22.18-.2-.12-.26-.12-.26-.1-.22.02-.28.02-.28.02-.28.02-.28.02-.28.02-.28.02-.28.02-.28v-.21l.2-.21.19-.21.19-.21.19-.21.19-.21.19-.21.19-.21.12-.13-.23-.16-.23-.16-.23-.16-.23-.16-.23-.16-.23-.16-.23-.16-.23-.16-.23-.16-.23-.16-.23-.16-.23-.16-.04-.03-.19.21-.19.21-.19.21-.19.21-.19.21-.19.21-.19.21-.19.21-.19.21-.21.23v.28l-.03.28v.28l-.03.28v.28l-.03.28v.28l-.03.28v.28l-.03.28v.28l-.03.28v.28l-.03.28v.28l-.03.28v.28l-.03.28v.09"/><path d="M193.55,93.03l-.24-.16-.24-.16-.24-.16-.24-.16-.24-.16-.24-.16-.11-.07-.19.21-.19.21-.19.21-.19.21-.19.21-.19.21-.19.21-.19.21-.19.21-.2.22v.28l-.03.28v.28l-.03.28v.28l-.03.28v.28l-.03.28v.28l-.03.28v.28l-.03.28v.28l-.03.28v.28l-.02.08-.24.15-.24.15-.24.15-.13.08.23.17.23.17.23.17.23.17.23.17.23.17.23.17.23.17.23.17.23.17.23.17.21.15.24-.16.24-.16.24-.16.24-.16.24-.16.24-.16.04-.03v-.28l.03-.28v-.28l.03-.28v-.28l.03-.28v-.28l.03-.28v-.28l.03-.28v-.28l.03-.28v-.28l.03-.28v-.28l.03-.28v-.28l.03-.28v-.28l.03-.28v-.28l.03-.28v-.28l.03-.28v-.14"/><path d="M180.4,94.13v.28l-.03.28v.28l-.03.28v.28l-.03.28v.28l-.03.28v.28l-.03.28v.28l-.03.28v.28l-.03.28v.28l-.03.28v.28l-.03.28v.28l-.02.19.24.16.24.16.24.16.24.16.24.16.24.16.24.16.23.16.19-.22.19-.22.19-.22.19-.22.19-.22.19-.22.19-.22.19-.22.19-.22.19-.22.04-.04-.12-.26-.12-.26-.1-.22.02-.28.02-.28.02-.28.02-.28.02-.28.02-.28.02-.28.02-.28v-.21l.2-.21.19-.21.19-.21.19-.21.19-.21.19-.21.19-.21.12-.13-.23-.16-.23-.16-.23-.16-.23-.16-.23-.16-.23-.16-.23-.16-.23-.16-.23-.16-.23-.16-.23-.16-.23-.16-.04-.03-.19.21-.19.21-.19.21-.19.21-.19.21-.19.21-.19.21-.19.21-.19.21-.21.23"/><path d="M184.13,90.08l-.19.21-.19.21-.19.21-.19.21-.19.21-.19.21-.19.21-.11.11.24.16.24.16.24.16.24.16.24.16.24.16.24.16.24.16.24.16.24.16.24.16.24.16.04.03h4.34l.19-.21.19-.21.19-.21.19-.21.19-.21.19-.21.19-.21.19-.21.15-.17-.24-.16-.24-.16-.24-.16-.24-.16-.24-.16-.24-.16-.24-.16-.24-.16-.24-.16-.24-.16-.15-.1h-4.92"/><path d="M182.44,101.25l.24.16.24.16.24.16.24.16.24.16.24.16.24.16.24.16.24.16.18.12h4.34l.24-.16.24-.16.24-.16.24-.16.24-.16.24-.16.24-.16.24-.16.24-.16.12-.08-.23-.17-.23-.17-.23-.17-.23-.17-.23-.17-.23-.17-.23-.17-.23-.17-.23-.17-.23-.17-.23-.17-.23-.17h-4.38l-.19.21-.19.21-.19.21-.19.21-.19.21-.19.21-.19.21-.19.21-.19.21-.04.04"/><path d="M180.98,111.21l.15.24.15.24.15.24.05.08h6.82l.24-.16.24-.16.24-.16.24-.16.24-.16h0l-.15-.25-.15-.24-.15-.24-.15-.24-.15-.24-.15-.24-.15-.24-.15-.24-.15-.24-.15-.24-.15-.26h-4.5l-.19.21-.19.21-.19.21-.19.21-.19.21-.19.21-.19.21-.19.21-.19.21-.19.21-.19.21-.19.21-.13.15"/><path d="M229.4,28.2l.15.24.15.24.15.24.15.24.06.1h9.09l.24-.16.24-.16.24-.16.24-.16.24-.16.24-.16.17-.12-.15-.24-.15-.24-.15-.24-.15-.24-.15-.24-.15-.24-.15-.24-.15-.24-.15-.24-.15-.24-.15-.24-.15-.24-.15-.24-.15-.24-.11-.18h-6l-.19.21-.19.21-.19.21-.19.21-.19.21-.19.21-.19.21-.19.21-.19.21-.19.21-.19.21-.19.21-.19.21-.19.21-.19.21-.19.21-.17.2"/><path d="M196.97,111.21l.15.24.15.24.15.24.05.08h6.82l.24-.16.24-.16.24-.16.24-.16.24-.16h0l-.15-.25-.15-.24-.15-.24-.15-.24-.15-.24-.15-.24-.15-.24-.15-.24-.15-.24-.15-.24-.15-.26h-4.5l-.19.21-.19.21-.19.21-.19.21-.19.21-.19.21-.19.21-.19.21-.19.21-.19.21-.19.21-.19.21-.13.15"/></g></g></svg>