<?xml version="1.0" encoding="UTF-8"?><svg id="a" xmlns="http://www.w3.org/2000/svg" viewBox="0 0 200 200"><defs><style>.b{fill:#231f20;}.c{fill:#fff;}</style></defs><rect class="b" width="200" height="200"/><path class="c" d="M50.23,173.72v-5.55l23.44-25.29c22.21-23.85,38.86-44.62,38.86-67.85,0-16.45-9.87-27.35-24.67-27.35-10.69,0-23.03,6.17-27.35,25.7l-5.55-1.03c2.06-27.35,19.12-45.65,47.91-45.65,26.11,0,41.94,16.24,41.94,36.19,0,22.21-15.63,42.77-69.5,87.8,5.14-2.26,12.75-3.29,23.85-3.29h14.6c22.82,0,25.5-1.03,26.52-6.58l1.65-8.02h7.2l-3.5,40.92H50.23Z"/></svg>