<?xml version="1.0" encoding="UTF-8"?><svg id="a" xmlns="http://www.w3.org/2000/svg" viewBox="0 0 200 200"><defs><style>.b{fill:#231f20;}.c{fill:#fff;}</style></defs><rect class="b" width="200" height="200"/><path class="c" d="M49.71,154.6c0-6.17,4.93-10.69,12.75-10.69,1.23,0,3.91.21,4.52.41,8.22,7.2-.62,25.91,18.5,25.91,15.83,0,28.99-13.57,28.99-33.72,0-18.5-11.93-31.87-29.2-31.87-7.81,0-13.78,2.26-18.09,5.55l-5.55-1.65,10.28-78.75h49.35c12.54,0,14.8-1.03,17.07-6.99l1.03-3.08,6.58.41-2.88,16.04c-2.47,13.36-4.93,18.3-9.46,19.94h-56.95l-4.73,35.16c5.96-5.35,17.48-9.25,29.61-9.25,29.4,0,45.85,20.15,45.85,42.15,0,30.84-26.32,52.64-60.25,52.64-24.47,0-37.42-12.13-37.42-22.21Z"/></svg>