<?xml version="1.0" encoding="UTF-8"?><svg id="a" xmlns="http://www.w3.org/2000/svg" viewBox="0 0 200 200"><defs><style>.b{fill:#231f20;}.c{fill:#fff;}</style></defs><rect class="b" width="200" height="200"/><path class="c" d="M99.68,176.08c-27.14,0-52.43-21.18-52.43-59.01,0-49.35,40.92-83.89,101.98-91.09l1.65,5.35c-45.44,12.75-69.91,44.21-69.91,91.91,0,30.43,8.22,45.65,21.38,45.65s19.12-13.16,19.12-34.34c0-18.92-8.02-36.19-19.74-36.19-4.11,0-7.61,1.65-9.66,3.7l-2.67-4.73c5.35-6.79,15.42-13.37,28.17-13.37,22.21,0,36.8,18.92,36.8,39.89,0,31.66-25.08,52.23-54.69,52.23Z"/></svg>