<?xml version="1.0" encoding="UTF-8"?><svg id="a" xmlns="http://www.w3.org/2000/svg" viewBox="0 0 200 200"><defs><style>.b{fill:#231f20;}.c{fill:#fff;}</style></defs><rect class="b" x="0" width="200" height="200"/><path class="c" d="M50.23,154.29c0-6.17,4.52-10.49,12.75-10.49,1.23,0,3.91.21,4.52.41,8.22,6.79-.21,25.29,18.09,25.29s29.61-13.98,29.61-34.34c0-17.89-11.31-30.43-28.99-30.43-4.32,0-9.05,1.44-12.54,3.08l-1.85-5.96c29.2-10.08,38.86-18.92,38.86-33.52,0-12.54-9.05-21.38-22.82-21.38-12.95,0-23.03,7.4-26.32,20.56l-5.55-1.23c1.03-20.56,16.65-40.3,46.47-40.3,25.7,0,38.66,14.8,38.66,29.2s-8.64,27.35-37.42,37.42c2.67-.62,5.35-1.03,8.64-1.03,20.56,0,36.39,15.22,36.39,35.37,0,30.64-27.55,49.14-61.89,49.14-23.03,0-36.6-11.51-36.6-21.79Z"/></svg>