<?xml version="1.0" encoding="UTF-8"?><svg id="b" xmlns="http://www.w3.org/2000/svg" viewBox="0 0 116.7 76.75"><defs><style>.d{stroke:#000;stroke-miterlimit:10;}</style></defs><g id="c"><path class="d" d="M79.99,24.42c-.34-.03-2.34-.18-4.91.12-2.73.31-4.09.89-4.68,1.17-.71.34-1.79.86-2.85,1.94-1.09,1.1-1.61,2.22-1.96,2.99-.74,1.64-.97,3.03-1.06,3.62-.65,4.31-1.22,10.82-1.87,15.15-.06.39-.19,1.22-.57,2.23-.28.74-1.18,3.02-3.34,4.41-1.15.74-2.24.96-2.75,1.05-5.3.98-17.42,1.23-20,1.31,0,0-14.27.43-20.24-.57-1.13-.19-1.91-.6-2.48-1.1-.64-.56-.97-1.2-1.12-1.5-.54-1.05-.62-2.03-.65-2.41-1.01-13.97,2.06-31.03,2.06-31.03.04-.22.2-1.09.56-2.2.33-1,.54-1.67,1.05-2.42.92-1.38,2.12-2.03,2.35-2.16,1.2-.64,2.34-.69,2.83-.72,14.88-.63,23.94.81,30.97,2.02.59.1,3.02.55,5.03,2.22,1.38,1.14,1.82,2.25,1.94,2.58.19.54.26.99.36,1.74.21,1.59.16,2.82.15,3.04,0,0-.41,11-1.53,16.22-.27,1.24-.72,1.95-1.02,2.31,0,0-.46.55-1.12.97-4.71,2.95-20.15.85-20.15.85-.45-.06-1.34-.19-1.96-.87-.57-.62-.7-1.47-.8-2.06-.1-.61-.08-1.09-.05-1.73.04-.89.17-1.56.2-1.76.54-2.96.56-4.21,1.34-7.56.22-.94.38-1.56.69-2.32.37-.93.71-1.79,1.49-2.63.43-.47,1.22-1.32,2.55-1.64,1.43-.34,2.74.13,3.55.69.43.29.99.67,1.12,1.37.1.55-.09,1.13-.45,1.51-.49.52-1.16.55-2.01.59-.48.02-1.22,0-2.09-.27-.27,2.82-.53,5.64-.8,8.46,1.84.6,4.82,1.25,8.23.54,1.66-.35,3.73-.78,5.14-2.52.96-1.19,1.41-2.74,1.52-3.14.25-.86.31-1.52.43-2.66.04-.36.16-1.66.11-3.49-.07-2.47-.38-3.15-.54-3.46-.36-.7-.81-1.14-1.02-1.33-.67-.64-2.19-1.72-7.99-1.87-2.35-.06-3.94.07-6.03.25-3.51.29-5.15.69-6.53,1.67-.27.19-.91.66-1.52,1.46-.82,1.08-1.1,2.13-1.24,2.67-1.13,4.46-1.43,8.18-1.43,8.18-.32,3.96-.4,6.68-.12,9.68.14,1.52.37,3.2,1.59,4.55.77.86,1.76,1.4,2.19,1.63,1.25.67,2.35.91,2.95,1.03,4.01.78,9.28.78,15.05.48.59-.03,1.71-.1,3.13-.5,1.71-.49,2.86-1.19,3.1-1.34.65-.4,2.32-1.46,3.55-3.47.98-1.59,1.23-3.05,1.65-5.53.23-1.32.3-2.32.33-2.64.43-5.44,1.4-13.33,1.65-20.71.01-.32.04-1.33-.08-2.64-.12-1.33-.26-2.82-.89-4.15-.24-.51-.95-1.81-3-3.17C49.11,1.72,28.08.57,28.08.57c-1.44-.08-2.9-.14-4.8.14-6.29.93-10.54,4.56-11.94,5.88-2.38,2.24-4.46,5.23-6.83,12.4C-1.61,37.48.54,52.89,2.73,59.69c1.2,3.71,2.84,6.19,3.32,6.9,1.04,1.53,2.99,4.34,6.61,6.53,2.82,1.71,5.48,2.32,6.68,2.58,2.12.47,3.79.54,6.51.55,7.54.02,13.28-.45,13.52-.47,4.86-.41,7.34-.62,10.88-1.22,0,0,10.85-1.81,18.23-6.17,1.17-.69,2.77-1.76,3.97-3.67.78-1.24,1.07-2.32,1.44-3.74.59-2.24.6-3.65.87-7.6.08-1.2.22-3.05.42-5.36.08-1.22.4-3.38,1.96-5.14.53-.6,1.59-1.63,3.87-2.34,3.85-1.21,14.33-2.54,28.33-3.4l.74-10c-15.39-1.46-26.69-2.44-30.09-2.71Z"/><path class="d" d="M114.96,63.67c.39,2.47.78,4.93,1.17,7.4-.47.09-1.33.25-2.41.44,0,0-25.98,4.68-31.72.49-.88-.64-1.45-1.48-1.45-1.48-.54-.79-.78-1.56-.91-2.11-.92-3.78-.66-9.31-.66-9.31.25-6.28.93-7.78,1.7-8.89.18-.26.74-1.04,1.8-1.94,1.02-.87,4.22-3.31,13.42-3.86,6.19-.36,10.49-.56,13.06,2.2,1.1,1.18,1.81,2.82,1.89,3.03.46,1.09,1.39,3.28.7,5.88-.13.5-.54,1.97-1.81,3.25-1.18,1.19-2.56,1.67-3.81,1.99-5.05,1.29-12.63,1.13-13.98,1.09.12-2.6.24-5.2.37-7.81,4.69-.12,8.15-.7,8.92-1.44.53-.51.62-1.07.62-1.07,0-.05.1-.67-.27-1.18-.43-.61-1.25-.71-1.66-.75-7.02-.73-11.17,1.02-11.17,1.02-.57.24-1.02.46-1.21.56,0,0-.74.43-1.35,1.03-2.01,1.97-2.12,5.27-2.13,5.63-.02.91-.03,2.61,1.02,4.3.66,1.06,1.44,1.66,1.71,1.85.96.7,1.87.94,2.88,1.19,1.53.39,2.76.43,3.02.44,5.42.16,16.77-1.26,18.93-1.53,1.39-.17,2.54-.31,3.33-.4Z"/></g></svg>