<?xml version="1.0" encoding="UTF-8"?><svg id="b" xmlns="http://www.w3.org/2000/svg" viewBox="0 0 479.4 68.15"><defs><style>.e{fill:#231f20;}</style></defs><g id="c"><g id="d"><path class="e" d="M470.16,45.08c7.06-.34,11.67,7.34,7.89,13.37-3.42,5.45-11.39,5.45-14.81,0-3.52-5.62.32-13.05,6.92-13.37ZM470.35,46.84c-5.31.24-8.45,6.13-5.6,10.67,2.73,4.34,9.07,4.34,11.8,0,2.99-4.75-.62-10.91-6.2-10.67Z"/><path class="e" d="M466.82,49.04h4.1c1.37.09,2.72.45,2.95,2,.16,1.06-.12,2.05-1.09,2.6l-.62.27c.62.14,1.05.65,1.37,1.17l1.55,3.09h-2.51l-1.17-2.39c-.24-.5-.71-1.06-1.32-1.06h-.89v3.45h-2.36v-9.13ZM469.17,53.09c.87-.04,2.26.26,2.37-.98.09-.99-.39-1.37-1.34-1.38h-1.03v2.36Z"/><path class="e" d="M109.59,62.54h-34.15V5.62h8.13v50.25h26.02v6.67Z"/><path class="e" d="M155.77,62.54h-36.18V5.62h36.18v6.67h-28.05v19.03h24.48v6.67h-24.48v17.89h28.05v6.67Z"/><path class="e" d="M174.39,50.75l-4.39,11.79h-8.38l21.87-56.92h9.43l21.95,56.92h-8.21l-4.47-11.79h-27.81ZM199.76,44.16l-11.55-30.74-11.38,30.74h22.93Z"/><path class="e" d="M224.73,62.54V5.62h36.18v6.67h-28.05v19.03h24.48v6.67h-24.48v24.56h-8.13Z"/><path class="e" d="M272.62,62.54V5.62h23.74c10.9,0,17.16,8.29,17.16,17.89,0,8.46-4.88,15.53-13.42,17.16.57,6.18,4.47,15.86,10.81,15.86,2.85,0,5.12-1.14,6.67-2.6l2.85,5.53c-2.68,2.76-6.34,3.98-10,3.98-13.33,0-17.48-15.53-18.05-22.44h-11.63v21.55h-8.13ZM294.66,34.48c6.5,0,10.41-4.55,10.41-11.06s-3.98-11.14-10.41-11.14h-13.91v22.2h13.91Z"/><path class="e" d="M373.45,5.62v35.86c0,14.39-10.33,21.96-22.52,21.96s-22.52-7.56-22.52-21.96V5.62h8.13v35.86c0,9.84,6.67,14.64,14.39,14.64s14.39-4.8,14.39-14.64V5.62h8.13Z"/><path class="e" d="M397.52,62.54h-8.13V5.62h8.13v56.92Z"/><path class="e" d="M453.79,5.62v6.67h-18.95v50.25h-8.13V12.29h-18.95v-6.67h46.02Z"/><path class="e" d="M3.79,68.15c-.17,0-.33,0-.5,0l-3.24-.03-.04-3.24c-.01-1.06-.01-2.14,0-3.19.05-4.6.08-6.9.62-9.08,1.08-4.37,3.67-7.19,4.73-8.2,4.22-4.02,9.55-4.02,13.84-4.01,3.62,0,5.9-.07,7.08-1.46.24-.29.44-.63.6-1.04-6.71-.63-13.76-1.89-18.63-7.17-3.18-3.44-4.29-7.42-4.66-8.72-.78-2.76-.86-5.09-.97-8.32-.08-2.21-.04-4.45.11-6.64.13-1.82,1.71-3.21,3.53-3.08,1.82.13,3.2,1.71,3.08,3.53-.13,1.96-.17,3.97-.1,5.95.1,2.97.17,4.76.73,6.76.26.93,1.06,3.75,3.16,6.03,1.53,1.66,3.32,2.6,5.64,3.46,7.18,2.67,12.71,2.03,21.41,3.51.87.15,2.88.5,5.38,1.36,1.42.49,2.98,1.02,4.61,1.99,3.64,2.17,5.5,5.27,6.18,6.44,2.13,3.61,2.53,7.04,2.74,8.88.08.65.1,1.11.2,4.13.08,2.75.14,5.01.18,6.52.04,1.83-1.4,3.34-3.23,3.39-1.82.03-3.34-1.4-3.39-3.23-.04-1.51-.09-3.74-.18-6.48-.09-2.91-.11-3.21-.15-3.57-.18-1.55-.45-3.88-1.87-6.29-.57-.96-1.85-2.79-4.09-4.24-.43-.28-1.73-1.12-7.78-2.43-1.7-.37-3.42-.69-5.16-.98l-.11,4.48c-.03.57-.08,1.14-.14,1.71-.33,3.17-.95,9.07-4.85,14.09-2.93,3.77-6.5,5.44-8.41,6.34-4.03,1.89-7.84,2.26-11.2,2.59l-.17.02c-1.63.16-3.29.24-4.93.24ZM18.78,47.01c-3.56,0-6.64.08-8.85,2.19-1.03.98-2.33,2.82-2.87,5-.35,1.39-.38,3.37-.42,7.24.48-.03.96-.07,1.44-.12l.17-.02c3.11-.3,6.04-.59,9.03-1.99,1.61-.75,4.04-1.89,6-4.41,2.11-2.71,2.88-6,3.24-8.6-2.37.71-4.93.71-7.32.71h-.42Z"/><circle class="e" cx="42.58" cy="14.28" r="14.27"/></g></g></svg>