<?xml version="1.0" encoding="UTF-8"?><svg id="b" xmlns="http://www.w3.org/2000/svg" viewBox="0 0 470.63 500"><defs><style>.d{fill:#231f20;}</style></defs><g id="c"><path class="d" d="M467.58,61.57c-2.97-8.65-7.84-16.04-14-22.38-26.74-27.55-77.32-35-97.21-36.92-.09,0-.21-.03-.33-.03-18.93-2.13-42.81-3.27-69.93-.99-21.39,1.83-174.68,17.33-259.51,144.4-3.27,4.84-6.79,10.42-10.42,16.76-.03.03-.06.06-.09.12-2.43,4.3-4.96,8.95-7.48,13.97-6.49,14.27-10.21,30.37-7.93,47.4.03.36.06.69.12,1.05,2.01,13.58,7.72,23.97,7.99,24.45,12.89,22.59,36.89,31.09,48.39,34.82.48.15.93.3,1.35.45,13.7,4.42,27.67,7.42,41.69,9.25,5.44.54,10.87,1.08,16.28,1.65,7.15.51,14.3.75,21.36.75,6.64,0,13.22-.21,19.71-.6,53.53-3.12,101.41-18.11,126.32-27.28,21.87,49.78,43.77,99.55,65.64,149.33.45,1.02.81,1.77,1.32,2.88,17.09,37.46,33.37,62.96,45.12,79.33-3.54-19.98-10.45-49.45-25.05-87.78,0,0-.42-1.26-1.08-2.79-21.87-49.75-43.74-99.49-65.58-149.24,14.21-6.64,46.02-22.62,77.77-46.44,1.44-1.08,2.85-2.16,4.27-3.24,5.26-4.06,10.3-8.17,15.08-12.32,30.37-26.28,51.13-54.1,61.94-83,1.47-3.94,2.73-7.9,3.85-11.87,2.82-10.18,5.95-25.59.42-41.76ZM58.26,275.12c-11.48-3.85-30.97-11.48-41.63-30.16-.06-.09-5.17-9.43-6.91-21.33-.84-5.68-.9-11.26-.39-16.7.06-.45.09-.9.18-1.35.39-2.37.9-4.33,1.35-5.89,6.73-22.62,29.53-37.31,56.56-46.59.72,2.73,1.71,5.08,2.82,7.12,4.12,7.36,11.48,12.98,21.3,16.91-12.95,21.75-27.4,53.86-33.28,97.99ZM157.18,286.78c-.48-21.18,1.8-64.62,23.34-106.88,18.65-3.33,38.24-8.65,57.62-15.86,14.08,32.03,28.16,64.06,42.24,96.1-.03,0-.09.03-.12.06-24.42,8.98-71.07,23.52-123.07,26.59ZM378.6,14.5h.06c18.8,3.57,42.45,10.33,59.69,23.16-28.03-2.46-55.45-2.73-81.92-.9-7.75-8.53-18.93-14.63-28.66-18.68,20.4-5.65,38.87-4.99,50.83-3.57ZM395.85,191.07c-2.76-3.51-5.59-7-8.53-10.48-20.31-24.12-42.27-44.88-65.01-62.78,13.52-10.09,28.9-22.95,37.31-37.16,32.83,1.92,65.85,11.75,95.89,29.62-10,27.97-30.01,55.06-59.66,80.81Z"/></g></svg>